{
    "asset" : {
        "generator" : "Khronos glTF Blender I/O v1.7.33",
        "version" : "2.0"
    },
    "scene" : 0,
    "scenes" : [
        {
            "name" : "Scene",
            "nodes" : [
                0
            ]
        }
    ],
    "nodes" : [
        {
            "mesh" : 0,
            "name" : "Cube.006",
            "scale" : [
                0.5905020833015442,
                0.7608173489570618,
                3.512488842010498
            ],
            "translation" : [
                -0.30422747135162354,
                5.676726341247559,
                0
            ]
        }
    ],
    "materials" : [
        {
            "doubleSided" : true,
            "name" : "Material.002",
            "pbrMetallicRoughness" : {
                "baseColorFactor" : [
                    0.029556840658187866,
                    0.10702312737703323,
                    0.026241229847073555,
                    1
                ],
                "metallicFactor" : 0,
                "roughnessFactor" : 0.5
            }
        },
        {
            "doubleSided" : true,
            "name" : "Material.003",
            "pbrMetallicRoughness" : {
                "baseColorFactor" : [
                    0.029556840658187866,
                    0.10702312737703323,
                    0.026241229847073555,
                    1
                ],
                "metallicFactor" : 0,
                "roughnessFactor" : 0.5
            }
        },
        {
            "doubleSided" : true,
            "name" : "Material.005",
            "pbrMetallicRoughness" : {
                "baseColorFactor" : [
                    0.029556840658187866,
                    0.10702312737703323,
                    0.026241229847073555,
                    1
                ],
                "metallicFactor" : 0,
                "roughnessFactor" : 0.5
            }
        },
        {
            "doubleSided" : true,
            "name" : "Material.004",
            "pbrMetallicRoughness" : {
                "baseColorFactor" : [
                    0.029556840658187866,
                    0.10702312737703323,
                    0.026241229847073555,
                    1
                ],
                "metallicFactor" : 0,
                "roughnessFactor" : 0.5
            }
        }
    ],
    "meshes" : [
        {
            "name" : "Cube.004",
            "primitives" : [
                {
                    "attributes" : {
                        "POSITION" : 0,
                        "NORMAL" : 1,
                        "TEXCOORD_0" : 2
                    },
                    "indices" : 3,
                    "material" : 0
                },
                {
                    "attributes" : {
                        "POSITION" : 4,
                        "NORMAL" : 5,
                        "TEXCOORD_0" : 6
                    },
                    "indices" : 7,
                    "material" : 1
                },
                {
                    "attributes" : {
                        "POSITION" : 8,
                        "NORMAL" : 9,
                        "TEXCOORD_0" : 10
                    },
                    "indices" : 11,
                    "material" : 2
                },
                {
                    "attributes" : {
                        "POSITION" : 12,
                        "NORMAL" : 13,
                        "TEXCOORD_0" : 14
                    },
                    "indices" : 15,
                    "material" : 3
                }
            ]
        }
    ],
    "accessors" : [
        {
            "bufferView" : 0,
            "componentType" : 5126,
            "count" : 414,
            "max" : [
                1,
                1,
                -0.5
            ],
            "min" : [
                -1.1999030113220215,
                -1,
                -1
            ],
            "type" : "VEC3"
        },
        {
            "bufferView" : 1,
            "componentType" : 5126,
            "count" : 414,
            "type" : "VEC3"
        },
        {
            "bufferView" : 2,
            "componentType" : 5126,
            "count" : 414,
            "type" : "VEC2"
        },
        {
            "bufferView" : 3,
            "componentType" : 5123,
            "count" : 930,
            "type" : "SCALAR"
        },
        {
            "bufferView" : 4,
            "componentType" : 5126,
            "count" : 437,
            "max" : [
                1.0000004768371582,
                1.0000052452087402,
                -3.159046173095703e-06
            ],
            "min" : [
                -1.1999027729034424,
                -0.9999947547912598,
                -0.5000030994415283
            ],
            "type" : "VEC3"
        },
        {
            "bufferView" : 5,
            "componentType" : 5126,
            "count" : 437,
            "type" : "VEC3"
        },
        {
            "bufferView" : 6,
            "componentType" : 5126,
            "count" : 437,
            "type" : "VEC2"
        },
        {
            "bufferView" : 7,
            "componentType" : 5123,
            "count" : 930,
            "type" : "SCALAR"
        },
        {
            "bufferView" : 8,
            "componentType" : 5126,
            "count" : 415,
            "max" : [
                1.0000007152557373,
                1.0000004768371582,
                0.5000030994415283
            ],
            "min" : [
                -1.1999022960662842,
                -0.9999995231628418,
                3.159046173095703e-06
            ],
            "type" : "VEC3"
        },
        {
            "bufferView" : 9,
            "componentType" : 5126,
            "count" : 415,
            "type" : "VEC3"
        },
        {
            "bufferView" : 10,
            "componentType" : 5126,
            "count" : 415,
            "type" : "VEC2"
        },
        {
            "bufferView" : 11,
            "componentType" : 5123,
            "count" : 930,
            "type" : "SCALAR"
        },
        {
            "bufferView" : 12,
            "componentType" : 5126,
            "count" : 413,
            "max" : [
                1.0000011920928955,
                1.0000057220458984,
                0.9999999403953552
            ],
            "min" : [
                -1.199902057647705,
                -0.9999942779541016,
                0.5000000596046448
            ],
            "type" : "VEC3"
        },
        {
            "bufferView" : 13,
            "componentType" : 5126,
            "count" : 413,
            "type" : "VEC3"
        },
        {
            "bufferView" : 14,
            "componentType" : 5126,
            "count" : 413,
            "type" : "VEC2"
        },
        {
            "bufferView" : 15,
            "componentType" : 5123,
            "count" : 930,
            "type" : "SCALAR"
        }
    ],
    "bufferViews" : [
        {
            "buffer" : 0,
            "byteLength" : 4968,
            "byteOffset" : 0
        },
        {
            "buffer" : 0,
            "byteLength" : 4968,
            "byteOffset" : 4968
        },
        {
            "buffer" : 0,
            "byteLength" : 3312,
            "byteOffset" : 9936
        },
        {
            "buffer" : 0,
            "byteLength" : 1860,
            "byteOffset" : 13248
        },
        {
            "buffer" : 0,
            "byteLength" : 5244,
            "byteOffset" : 15108
        },
        {
            "buffer" : 0,
            "byteLength" : 5244,
            "byteOffset" : 20352
        },
        {
            "buffer" : 0,
            "byteLength" : 3496,
            "byteOffset" : 25596
        },
        {
            "buffer" : 0,
            "byteLength" : 1860,
            "byteOffset" : 29092
        },
        {
            "buffer" : 0,
            "byteLength" : 4980,
            "byteOffset" : 30952
        },
        {
            "buffer" : 0,
            "byteLength" : 4980,
            "byteOffset" : 35932
        },
        {
            "buffer" : 0,
            "byteLength" : 3320,
            "byteOffset" : 40912
        },
        {
            "buffer" : 0,
            "byteLength" : 1860,
            "byteOffset" : 44232
        },
        {
            "buffer" : 0,
            "byteLength" : 4956,
            "byteOffset" : 46092
        },
        {
            "buffer" : 0,
            "byteLength" : 4956,
            "byteOffset" : 51048
        },
        {
            "buffer" : 0,
            "byteLength" : 3304,
            "byteOffset" : 56004
        },
        {
            "buffer" : 0,
            "byteLength" : 1860,
            "byteOffset" : 59308
        }
    ],
    "buffers" : [
        {
            "byteLength" : 61168,
            "uri" : "ARMARIO1_V.bin"
        }
    ]
}
