{
    "asset" : {
        "generator" : "Khronos glTF Blender I/O v1.8.19",
        "version" : "2.0"
    },
    "scene" : 0,
    "scenes" : [
        {
            "name" : "Scene",
            "nodes" : [
                0
            ]
        }
    ],
    "nodes" : [
        {
            "mesh" : 0,
            "name" : "Cube.001",
            "scale" : [
                1.5588244199752808,
                2.3111116886138916,
                0.9702916741371155
            ],
            "translation" : [
                0,
                2.3051841259002686,
                -0.5479785203933716
            ]
        }
    ],
    "materials" : [
        {
            "doubleSided" : true,
            "name" : "Material.010",
            "pbrMetallicRoughness" : {
                "baseColorFactor" : [
                    0.5985909104347229,
                    0.8000000715255737,
                    0.777099609375,
                    1
                ],
                "metallicFactor" : 0,
                "roughnessFactor" : 0.5
            }
        },
        {
            "doubleSided" : true,
            "name" : "Material.003",
            "pbrMetallicRoughness" : {
                "baseColorFactor" : [
                    1,
                    1,
                    1,
                    1
                ],
                "metallicFactor" : 0,
                "roughnessFactor" : 0.4000000059604645
            }
        },
        {
            "doubleSided" : true,
            "name" : "Material.004",
            "pbrMetallicRoughness" : {
                "baseColorFactor" : [
                    0.06372044235467911,
                    0.06372044235467911,
                    0.06372044235467911,
                    1
                ],
                "metallicFactor" : 0,
                "roughnessFactor" : 0.5
            }
        },
        {
            "doubleSided" : true,
            "name" : "Material.001",
            "pbrMetallicRoughness" : {
                "baseColorFactor" : [
                    0.43965694308280945,
                    0.2422809898853302,
                    0.1169707179069519,
                    1
                ],
                "metallicFactor" : 0,
                "roughnessFactor" : 0.5
            }
        },
        {
            "doubleSided" : true,
            "name" : "Material.007",
            "pbrMetallicRoughness" : {
                "baseColorFactor" : [
                    0.3672371804714203,
                    0.3672371804714203,
                    0.3672371804714203,
                    1
                ],
                "metallicFactor" : 0,
                "roughnessFactor" : 0.5
            }
        },
        {
            "doubleSided" : true,
            "name" : "Material.011",
            "pbrMetallicRoughness" : {
                "metallicFactor" : 0,
                "roughnessFactor" : 0.5
            }
        }
    ],
    "meshes" : [
        {
            "name" : "Cube.007",
            "primitives" : [
                {
                    "attributes" : {
                        "POSITION" : 0,
                        "NORMAL" : 1,
                        "TEXCOORD_0" : 2
                    },
                    "indices" : 3,
                    "material" : 0
                },
                {
                    "attributes" : {
                        "POSITION" : 4,
                        "NORMAL" : 5,
                        "TEXCOORD_0" : 6
                    },
                    "indices" : 7,
                    "material" : 1
                },
                {
                    "attributes" : {
                        "POSITION" : 8,
                        "NORMAL" : 9,
                        "TEXCOORD_0" : 10
                    },
                    "indices" : 11,
                    "material" : 2
                },
                {
                    "attributes" : {
                        "POSITION" : 12,
                        "NORMAL" : 13,
                        "TEXCOORD_0" : 14
                    },
                    "indices" : 15,
                    "material" : 3
                },
                {
                    "attributes" : {
                        "POSITION" : 16,
                        "NORMAL" : 17,
                        "TEXCOORD_0" : 18
                    },
                    "indices" : 19,
                    "material" : 4
                },
                {
                    "attributes" : {
                        "POSITION" : 20,
                        "NORMAL" : 21,
                        "TEXCOORD_0" : 22
                    },
                    "indices" : 23,
                    "material" : 5
                }
            ]
        }
    ],
    "accessors" : [
        {
            "bufferView" : 0,
            "componentType" : 5126,
            "count" : 1335,
            "max" : [
                1,
                1,
                1
            ],
            "min" : [
                -1,
                -1,
                -1
            ],
            "type" : "VEC3"
        },
        {
            "bufferView" : 1,
            "componentType" : 5126,
            "count" : 1335,
            "type" : "VEC3"
        },
        {
            "bufferView" : 2,
            "componentType" : 5126,
            "count" : 1335,
            "type" : "VEC2"
        },
        {
            "bufferView" : 3,
            "componentType" : 5123,
            "count" : 3657,
            "type" : "SCALAR"
        },
        {
            "bufferView" : 4,
            "componentType" : 5126,
            "count" : 589,
            "max" : [
                0.9079062342643738,
                -0.8826369047164917,
                0.8584918975830078
            ],
            "min" : [
                -0.2209720015525818,
                -0.9409068822860718,
                -0.9097175598144531
            ],
            "type" : "VEC3"
        },
        {
            "bufferView" : 5,
            "componentType" : 5126,
            "count" : 589,
            "type" : "VEC3"
        },
        {
            "bufferView" : 6,
            "componentType" : 5126,
            "count" : 589,
            "type" : "VEC2"
        },
        {
            "bufferView" : 7,
            "componentType" : 5123,
            "count" : 960,
            "type" : "SCALAR"
        },
        {
            "bufferView" : 8,
            "componentType" : 5126,
            "count" : 384,
            "max" : [
                0.9198212027549744,
                0.756908655166626,
                0.8390503525733948
            ],
            "min" : [
                -0.21247291564941406,
                0.7406845092773438,
                -0.919293999671936
            ],
            "type" : "VEC3"
        },
        {
            "bufferView" : 9,
            "componentType" : 5126,
            "count" : 384,
            "type" : "VEC3"
        },
        {
            "bufferView" : 10,
            "componentType" : 5126,
            "count" : 384,
            "type" : "VEC2"
        },
        {
            "bufferView" : 11,
            "componentType" : 5123,
            "count" : 744,
            "type" : "SCALAR"
        },
        {
            "bufferView" : 12,
            "componentType" : 5126,
            "count" : 1600,
            "max" : [
                0.8073720932006836,
                0.7469337582588196,
                0.8989294767379761
            ],
            "min" : [
                0.2409278154373169,
                -0.8765956163406372,
                0.8192294239997864
            ],
            "type" : "VEC3"
        },
        {
            "bufferView" : 13,
            "componentType" : 5126,
            "count" : 1600,
            "type" : "VEC3"
        },
        {
            "bufferView" : 14,
            "componentType" : 5126,
            "count" : 1600,
            "type" : "VEC2"
        },
        {
            "bufferView" : 15,
            "componentType" : 5123,
            "count" : 2400,
            "type" : "SCALAR"
        },
        {
            "bufferView" : 16,
            "componentType" : 5126,
            "count" : 2452937,
            "max" : [
                0.9113414287567139,
                0.939285397529602,
                0.33691146969795227
            ],
            "min" : [
                -0.7960933446884155,
                -0.9359322190284729,
                -0.9076732993125916
            ],
            "type" : "VEC3"
        },
        {
            "bufferView" : 17,
            "componentType" : 5126,
            "count" : 2452937,
            "type" : "VEC3"
        },
        {
            "bufferView" : 18,
            "componentType" : 5126,
            "count" : 2452937,
            "type" : "VEC2"
        },
        {
            "bufferView" : 19,
            "componentType" : 5125,
            "count" : 3680412,
            "type" : "SCALAR"
        },
        {
            "bufferView" : 20,
            "componentType" : 5126,
            "count" : 504,
            "max" : [
                -0.2079978585243225,
                0.6391085386276245,
                -0.888629138469696
            ],
            "min" : [
                -0.7400551438331604,
                0.16097651422023773,
                -0.9065313935279846
            ],
            "type" : "VEC3"
        },
        {
            "bufferView" : 21,
            "componentType" : 5126,
            "count" : 504,
            "type" : "VEC3"
        },
        {
            "bufferView" : 22,
            "componentType" : 5126,
            "count" : 504,
            "type" : "VEC2"
        },
        {
            "bufferView" : 23,
            "componentType" : 5123,
            "count" : 996,
            "type" : "SCALAR"
        }
    ],
    "bufferViews" : [
        {
            "buffer" : 0,
            "byteLength" : 16020,
            "byteOffset" : 0
        },
        {
            "buffer" : 0,
            "byteLength" : 16020,
            "byteOffset" : 16020
        },
        {
            "buffer" : 0,
            "byteLength" : 10680,
            "byteOffset" : 32040
        },
        {
            "buffer" : 0,
            "byteLength" : 7314,
            "byteOffset" : 42720
        },
        {
            "buffer" : 0,
            "byteLength" : 7068,
            "byteOffset" : 50036
        },
        {
            "buffer" : 0,
            "byteLength" : 7068,
            "byteOffset" : 57104
        },
        {
            "buffer" : 0,
            "byteLength" : 4712,
            "byteOffset" : 64172
        },
        {
            "buffer" : 0,
            "byteLength" : 1920,
            "byteOffset" : 68884
        },
        {
            "buffer" : 0,
            "byteLength" : 4608,
            "byteOffset" : 70804
        },
        {
            "buffer" : 0,
            "byteLength" : 4608,
            "byteOffset" : 75412
        },
        {
            "buffer" : 0,
            "byteLength" : 3072,
            "byteOffset" : 80020
        },
        {
            "buffer" : 0,
            "byteLength" : 1488,
            "byteOffset" : 83092
        },
        {
            "buffer" : 0,
            "byteLength" : 19200,
            "byteOffset" : 84580
        },
        {
            "buffer" : 0,
            "byteLength" : 19200,
            "byteOffset" : 103780
        },
        {
            "buffer" : 0,
            "byteLength" : 12800,
            "byteOffset" : 122980
        },
        {
            "buffer" : 0,
            "byteLength" : 4800,
            "byteOffset" : 135780
        },
        {
            "buffer" : 0,
            "byteLength" : 29435244,
            "byteOffset" : 140580
        },
        {
            "buffer" : 0,
            "byteLength" : 29435244,
            "byteOffset" : 29575824
        },
        {
            "buffer" : 0,
            "byteLength" : 19623496,
            "byteOffset" : 59011068
        },
        {
            "buffer" : 0,
            "byteLength" : 14721648,
            "byteOffset" : 78634564
        },
        {
            "buffer" : 0,
            "byteLength" : 6048,
            "byteOffset" : 93356212
        },
        {
            "buffer" : 0,
            "byteLength" : 6048,
            "byteOffset" : 93362260
        },
        {
            "buffer" : 0,
            "byteLength" : 4032,
            "byteOffset" : 93368308
        },
        {
            "buffer" : 0,
            "byteLength" : 1992,
            "byteOffset" : 93372340
        }
    ],
    "buffers" : [
        {
            "byteLength" : 93374332,
            "uri" : "BANO2_M.bin"
        }
    ]
}
