{
    "asset" : {
        "generator" : "Khronos glTF Blender I/O v1.8.19",
        "version" : "2.0"
    },
    "scene" : 0,
    "scenes" : [
        {
            "name" : "Scene",
            "nodes" : [
                0
            ]
        }
    ],
    "nodes" : [
        {
            "mesh" : 0,
            "name" : "Cube.003",
            "scale" : [
                0.41469189524650574,
                0.5525082349777222,
                0.00868518278002739
            ],
            "translation" : [
                -0.7389240264892578,
                3.229727029800415,
                -1.4188932180404663
            ]
        }
    ],
    "materials" : [
        {
            "doubleSided" : true,
            "name" : "Material.011",
            "pbrMetallicRoughness" : {
                "metallicFactor" : 0,
                "roughnessFactor" : 0.5
            }
        },
        {
            "doubleSided" : true,
            "name" : "Material.003",
            "pbrMetallicRoughness" : {
                "baseColorFactor" : [
                    1,
                    1,
                    1,
                    1
                ],
                "metallicFactor" : 0,
                "roughnessFactor" : 0.4000000059604645
            }
        },
        {
            "doubleSided" : true,
            "name" : "Material.010",
            "pbrMetallicRoughness" : {
                "baseColorFactor" : [
                    0.5985909104347229,
                    0.8000000715255737,
                    0.777099609375,
                    1
                ],
                "metallicFactor" : 0,
                "roughnessFactor" : 0.5
            }
        },
        {
            "doubleSided" : true,
            "name" : "Material.004",
            "pbrMetallicRoughness" : {
                "baseColorFactor" : [
                    0.06372044235467911,
                    0.06372044235467911,
                    0.06372044235467911,
                    1
                ],
                "metallicFactor" : 0,
                "roughnessFactor" : 0.5
            }
        },
        {
            "doubleSided" : true,
            "name" : "Material.001",
            "pbrMetallicRoughness" : {
                "baseColorFactor" : [
                    0.43965694308280945,
                    0.2422809898853302,
                    0.1169707179069519,
                    1
                ],
                "metallicFactor" : 0,
                "roughnessFactor" : 0.5
            }
        },
        {
            "doubleSided" : true,
            "name" : "Material.007",
            "pbrMetallicRoughness" : {
                "baseColorFactor" : [
                    0.3672371804714203,
                    0.3672371804714203,
                    0.3672371804714203,
                    1
                ],
                "metallicFactor" : 0,
                "roughnessFactor" : 0.5
            }
        }
    ],
    "meshes" : [
        {
            "name" : "Cube.001",
            "primitives" : [
                {
                    "attributes" : {
                        "POSITION" : 0,
                        "NORMAL" : 1,
                        "TEXCOORD_0" : 2
                    },
                    "indices" : 3,
                    "material" : 0
                },
                {
                    "attributes" : {
                        "POSITION" : 4,
                        "NORMAL" : 5,
                        "TEXCOORD_0" : 6
                    },
                    "indices" : 7,
                    "material" : 1
                },
                {
                    "attributes" : {
                        "POSITION" : 8,
                        "NORMAL" : 9,
                        "TEXCOORD_0" : 10
                    },
                    "indices" : 11,
                    "material" : 2
                },
                {
                    "attributes" : {
                        "POSITION" : 12,
                        "NORMAL" : 13,
                        "TEXCOORD_0" : 14
                    },
                    "indices" : 15,
                    "material" : 3
                },
                {
                    "attributes" : {
                        "POSITION" : 16,
                        "NORMAL" : 17,
                        "TEXCOORD_0" : 18
                    },
                    "indices" : 19,
                    "material" : 4
                },
                {
                    "attributes" : {
                        "POSITION" : 20,
                        "NORMAL" : 21,
                        "TEXCOORD_0" : 22
                    },
                    "indices" : 23,
                    "material" : 5
                }
            ]
        }
    ],
    "accessors" : [
        {
            "bufferView" : 0,
            "componentType" : 5126,
            "count" : 504,
            "max" : [
                1,
                1,
                1
            ],
            "min" : [
                -1,
                -1,
                -1
            ],
            "type" : "VEC3"
        },
        {
            "bufferView" : 1,
            "componentType" : 5126,
            "count" : 504,
            "type" : "VEC3"
        },
        {
            "bufferView" : 2,
            "componentType" : 5126,
            "count" : 504,
            "type" : "VEC2"
        },
        {
            "bufferView" : 3,
            "componentType" : 5123,
            "count" : 996,
            "type" : "SCALAR"
        },
        {
            "bufferView" : 4,
            "componentType" : 5126,
            "count" : 589,
            "max" : [
                5.194676399230957,
                -5.365376949310303,
                196.18496704101562
            ],
            "min" : [
                0.951230525970459,
                -5.60911750793457,
                -1.355926513671875
            ],
            "type" : "VEC3"
        },
        {
            "bufferView" : 5,
            "componentType" : 5126,
            "count" : 589,
            "type" : "VEC3"
        },
        {
            "bufferView" : 6,
            "componentType" : 5126,
            "count" : 589,
            "type" : "VEC2"
        },
        {
            "bufferView" : 7,
            "componentType" : 5123,
            "count" : 960,
            "type" : "SCALAR"
        },
        {
            "bufferView" : 8,
            "componentType" : 5126,
            "count" : 1441,
            "max" : [
                5.54085636138916,
                2.509589195251465,
                342.8503112792969
            ],
            "min" : [
                -1.9771312475204468,
                -5.856301307678223,
                -16.111480712890625
            ],
            "type" : "VEC3"
        },
        {
            "bufferView" : 9,
            "componentType" : 5126,
            "count" : 1441,
            "type" : "VEC3"
        },
        {
            "bufferView" : 10,
            "componentType" : 5126,
            "count" : 1441,
            "type" : "VEC2"
        },
        {
            "bufferView" : 11,
            "componentType" : 5123,
            "count" : 3657,
            "type" : "SCALAR"
        },
        {
            "bufferView" : 12,
            "componentType" : 5126,
            "count" : 384,
            "max" : [
                5.23946475982666,
                1.4927513599395752,
                194.5444793701172
            ],
            "min" : [
                0.9831781387329102,
                1.4248864650726318,
                -1.894317626953125
            ],
            "type" : "VEC3"
        },
        {
            "bufferView" : 13,
            "componentType" : 5126,
            "count" : 384,
            "type" : "VEC3"
        },
        {
            "bufferView" : 14,
            "componentType" : 5126,
            "count" : 384,
            "type" : "VEC2"
        },
        {
            "bufferView" : 15,
            "componentType" : 5123,
            "count" : 744,
            "type" : "SCALAR"
        },
        {
            "bufferView" : 16,
            "componentType" : 5126,
            "count" : 1600,
            "max" : [
                4.816769599914551,
                1.4510266780853271,
                201.23403930664062
            ],
            "min" : [
                2.6875088214874268,
                -5.340106964111328,
                192.33010864257812
            ],
            "type" : "VEC3"
        },
        {
            "bufferView" : 17,
            "componentType" : 5126,
            "count" : 1600,
            "type" : "VEC3"
        },
        {
            "bufferView" : 18,
            "componentType" : 5126,
            "count" : 1600,
            "type" : "VEC2"
        },
        {
            "bufferView" : 19,
            "componentType" : 5123,
            "count" : 2400,
            "type" : "SCALAR"
        },
        {
            "bufferView" : 20,
            "componentType" : 5126,
            "count" : 2452611,
            "max" : [
                5.207589149475098,
                2.2556233406066895,
                292.80731201171875
            ],
            "min" : [
                -1.2106471061706543,
                -5.681881904602051,
                -1.1275558471679688
            ],
            "type" : "VEC3"
        },
        {
            "bufferView" : 21,
            "componentType" : 5126,
            "count" : 2452611,
            "type" : "VEC3"
        },
        {
            "bufferView" : 22,
            "componentType" : 5126,
            "count" : 2452611,
            "type" : "VEC2"
        },
        {
            "bufferView" : 23,
            "componentType" : 5125,
            "count" : 3680412,
            "type" : "SCALAR"
        }
    ],
    "bufferViews" : [
        {
            "buffer" : 0,
            "byteLength" : 6048,
            "byteOffset" : 0
        },
        {
            "buffer" : 0,
            "byteLength" : 6048,
            "byteOffset" : 6048
        },
        {
            "buffer" : 0,
            "byteLength" : 4032,
            "byteOffset" : 12096
        },
        {
            "buffer" : 0,
            "byteLength" : 1992,
            "byteOffset" : 16128
        },
        {
            "buffer" : 0,
            "byteLength" : 7068,
            "byteOffset" : 18120
        },
        {
            "buffer" : 0,
            "byteLength" : 7068,
            "byteOffset" : 25188
        },
        {
            "buffer" : 0,
            "byteLength" : 4712,
            "byteOffset" : 32256
        },
        {
            "buffer" : 0,
            "byteLength" : 1920,
            "byteOffset" : 36968
        },
        {
            "buffer" : 0,
            "byteLength" : 17292,
            "byteOffset" : 38888
        },
        {
            "buffer" : 0,
            "byteLength" : 17292,
            "byteOffset" : 56180
        },
        {
            "buffer" : 0,
            "byteLength" : 11528,
            "byteOffset" : 73472
        },
        {
            "buffer" : 0,
            "byteLength" : 7314,
            "byteOffset" : 85000
        },
        {
            "buffer" : 0,
            "byteLength" : 4608,
            "byteOffset" : 92316
        },
        {
            "buffer" : 0,
            "byteLength" : 4608,
            "byteOffset" : 96924
        },
        {
            "buffer" : 0,
            "byteLength" : 3072,
            "byteOffset" : 101532
        },
        {
            "buffer" : 0,
            "byteLength" : 1488,
            "byteOffset" : 104604
        },
        {
            "buffer" : 0,
            "byteLength" : 19200,
            "byteOffset" : 106092
        },
        {
            "buffer" : 0,
            "byteLength" : 19200,
            "byteOffset" : 125292
        },
        {
            "buffer" : 0,
            "byteLength" : 12800,
            "byteOffset" : 144492
        },
        {
            "buffer" : 0,
            "byteLength" : 4800,
            "byteOffset" : 157292
        },
        {
            "buffer" : 0,
            "byteLength" : 29431332,
            "byteOffset" : 162092
        },
        {
            "buffer" : 0,
            "byteLength" : 29431332,
            "byteOffset" : 29593424
        },
        {
            "buffer" : 0,
            "byteLength" : 19620888,
            "byteOffset" : 59024756
        },
        {
            "buffer" : 0,
            "byteLength" : 14721648,
            "byteOffset" : 78645644
        }
    ],
    "buffers" : [
        {
            "byteLength" : 93367292,
            "uri" : "BANO1_M.bin"
        }
    ]
}
