{
    "asset" : {
        "generator" : "Khronos glTF Blender I/O v1.8.19",
        "version" : "2.0"
    },
    "scene" : 0,
    "scenes" : [
        {
            "name" : "Scene",
            "nodes" : [
                0
            ]
        }
    ],
    "nodes" : [
        {
            "mesh" : 0,
            "name" : "Plane.001",
            "rotation" : [
                0.7075502872467041,
                0,
                0,
                0.7066630721092224
            ],
            "scale" : [
                0.44149351119995117,
                1,
                1.876079797744751
            ],
            "translation" : [
                0.817057728767395,
                2.1553525924682617,
                0.24911126494407654
            ]
        }
    ],
    "materials" : [
        {
            "doubleSided" : true,
            "name" : "Material.001",
            "pbrMetallicRoughness" : {
                "baseColorFactor" : [
                    0.029556741937994957,
                    0.10702306777238846,
                    0.02624124102294445,
                    1
                ],
                "metallicFactor" : 0,
                "roughnessFactor" : 0.5
            }
        },
        {
            "doubleSided" : true,
            "name" : "Material.003",
            "pbrMetallicRoughness" : {
                "baseColorFactor" : [
                    1,
                    1,
                    1,
                    1
                ],
                "metallicFactor" : 0,
                "roughnessFactor" : 0.4000000059604645
            }
        },
        {
            "doubleSided" : true,
            "name" : "Material.010",
            "pbrMetallicRoughness" : {
                "baseColorFactor" : [
                    0.5985909104347229,
                    0.8000000715255737,
                    0.777099609375,
                    1
                ],
                "metallicFactor" : 0,
                "roughnessFactor" : 0.5
            }
        },
        {
            "doubleSided" : true,
            "name" : "Material.004",
            "pbrMetallicRoughness" : {
                "baseColorFactor" : [
                    0.06372044235467911,
                    0.06372044235467911,
                    0.06372044235467911,
                    1
                ],
                "metallicFactor" : 0,
                "roughnessFactor" : 0.5
            }
        },
        {
            "doubleSided" : true,
            "name" : "Material.007",
            "pbrMetallicRoughness" : {
                "baseColorFactor" : [
                    0.3672371804714203,
                    0.3672371804714203,
                    0.3672371804714203,
                    1
                ],
                "metallicFactor" : 0,
                "roughnessFactor" : 0.5
            }
        },
        {
            "doubleSided" : true,
            "name" : "Material.011",
            "pbrMetallicRoughness" : {
                "metallicFactor" : 0,
                "roughnessFactor" : 0.5
            }
        }
    ],
    "meshes" : [
        {
            "name" : "Plane.002",
            "primitives" : [
                {
                    "attributes" : {
                        "POSITION" : 0,
                        "NORMAL" : 1,
                        "TEXCOORD_0" : 2
                    },
                    "indices" : 3,
                    "material" : 0
                },
                {
                    "attributes" : {
                        "POSITION" : 4,
                        "NORMAL" : 5,
                        "TEXCOORD_0" : 6
                    },
                    "indices" : 7,
                    "material" : 1
                },
                {
                    "attributes" : {
                        "POSITION" : 8,
                        "NORMAL" : 9,
                        "TEXCOORD_0" : 10
                    },
                    "indices" : 11,
                    "material" : 2
                },
                {
                    "attributes" : {
                        "POSITION" : 12,
                        "NORMAL" : 13,
                        "TEXCOORD_0" : 14
                    },
                    "indices" : 15,
                    "material" : 3
                },
                {
                    "attributes" : {
                        "POSITION" : 16,
                        "NORMAL" : 17,
                        "TEXCOORD_0" : 18
                    },
                    "indices" : 19,
                    "material" : 4
                },
                {
                    "attributes" : {
                        "POSITION" : 20,
                        "NORMAL" : 21,
                        "TEXCOORD_0" : 22
                    },
                    "indices" : 23,
                    "material" : 5
                }
            ]
        }
    ],
    "accessors" : [
        {
            "bufferView" : 0,
            "componentType" : 5126,
            "count" : 1575,
            "max" : [
                1.0000001192092896,
                0.0774877518415451,
                0.9999818205833435
            ],
            "min" : [
                -1.0000001192092896,
                0,
                -1.0000001192092896
            ],
            "type" : "VEC3"
        },
        {
            "bufferView" : 1,
            "componentType" : 5126,
            "count" : 1575,
            "type" : "VEC3"
        },
        {
            "bufferView" : 2,
            "componentType" : 5126,
            "count" : 1575,
            "type" : "VEC2"
        },
        {
            "bufferView" : 3,
            "componentType" : 5123,
            "count" : 2400,
            "type" : "SCALAR"
        },
        {
            "bufferView" : 4,
            "componentType" : 5126,
            "count" : 608,
            "max" : [
                1.3549656867980957,
                0.038280367851257324,
                1.0802940130233765
            ],
            "min" : [
                -2.6308751106262207,
                -1.6774004697799683,
                1.0074305534362793
            ],
            "type" : "VEC3"
        },
        {
            "bufferView" : 5,
            "componentType" : 5126,
            "count" : 608,
            "type" : "VEC3"
        },
        {
            "bufferView" : 6,
            "componentType" : 5126,
            "count" : 608,
            "type" : "VEC2"
        },
        {
            "bufferView" : 7,
            "componentType" : 5123,
            "count" : 960,
            "type" : "SCALAR"
        },
        {
            "bufferView" : 8,
            "componentType" : 5126,
            "count" : 2026,
            "max" : [
                1.6801303625106812,
                0.17591315507888794,
                1.153200387954712
            ],
            "min" : [
                -5.381465435028076,
                -1.7704646587371826,
                -1.3118624687194824
            ],
            "type" : "VEC3"
        },
        {
            "bufferView" : 9,
            "componentType" : 5126,
            "count" : 2026,
            "type" : "VEC3"
        },
        {
            "bufferView" : 10,
            "componentType" : 5126,
            "count" : 2026,
            "type" : "VEC2"
        },
        {
            "bufferView" : 11,
            "componentType" : 5123,
            "count" : 3657,
            "type" : "SCALAR"
        },
        {
            "bufferView" : 12,
            "componentType" : 5126,
            "count" : 384,
            "max" : [
                1.397034764289856,
                0.014680200256407261,
                -0.9923021197319031
            ],
            "min" : [
                -2.6008663177490234,
                -1.6914198398590088,
                -1.0122884511947632
            ],
            "type" : "VEC3"
        },
        {
            "bufferView" : 13,
            "componentType" : 5126,
            "count" : 384,
            "type" : "VEC3"
        },
        {
            "bufferView" : 14,
            "componentType" : 5126,
            "count" : 384,
            "type" : "VEC2"
        },
        {
            "bufferView" : 15,
            "componentType" : 5123,
            "count" : 744,
            "type" : "SCALAR"
        },
        {
            "bufferView" : 16,
            "componentType" : 5126,
            "count" : 2453073,
            "max" : [
                1.36709463596344,
                -0.4677283465862274,
                1.073641061782837
            ],
            "min" : [
                -4.6615118980407715,
                -1.6781127452850342,
                -1.2363934516906738
            ],
            "type" : "VEC3"
        },
        {
            "bufferView" : 17,
            "componentType" : 5126,
            "count" : 2453073,
            "type" : "VEC3"
        },
        {
            "bufferView" : 18,
            "componentType" : 5126,
            "count" : 2453073,
            "type" : "VEC2"
        },
        {
            "bufferView" : 19,
            "componentType" : 5125,
            "count" : 3680412,
            "type" : "SCALAR"
        },
        {
            "bufferView" : 20,
            "componentType" : 5126,
            "count" : 504,
            "max" : [
                -2.5850658416748047,
                -1.6599698066711426,
                -0.27704674005508423
            ],
            "min" : [
                -4.463652610778809,
                -1.6787266731262207,
                -0.8660607933998108
            ],
            "type" : "VEC3"
        },
        {
            "bufferView" : 21,
            "componentType" : 5126,
            "count" : 504,
            "type" : "VEC3"
        },
        {
            "bufferView" : 22,
            "componentType" : 5126,
            "count" : 504,
            "type" : "VEC2"
        },
        {
            "bufferView" : 23,
            "componentType" : 5123,
            "count" : 996,
            "type" : "SCALAR"
        }
    ],
    "bufferViews" : [
        {
            "buffer" : 0,
            "byteLength" : 18900,
            "byteOffset" : 0
        },
        {
            "buffer" : 0,
            "byteLength" : 18900,
            "byteOffset" : 18900
        },
        {
            "buffer" : 0,
            "byteLength" : 12600,
            "byteOffset" : 37800
        },
        {
            "buffer" : 0,
            "byteLength" : 4800,
            "byteOffset" : 50400
        },
        {
            "buffer" : 0,
            "byteLength" : 7296,
            "byteOffset" : 55200
        },
        {
            "buffer" : 0,
            "byteLength" : 7296,
            "byteOffset" : 62496
        },
        {
            "buffer" : 0,
            "byteLength" : 4864,
            "byteOffset" : 69792
        },
        {
            "buffer" : 0,
            "byteLength" : 1920,
            "byteOffset" : 74656
        },
        {
            "buffer" : 0,
            "byteLength" : 24312,
            "byteOffset" : 76576
        },
        {
            "buffer" : 0,
            "byteLength" : 24312,
            "byteOffset" : 100888
        },
        {
            "buffer" : 0,
            "byteLength" : 16208,
            "byteOffset" : 125200
        },
        {
            "buffer" : 0,
            "byteLength" : 7314,
            "byteOffset" : 141408
        },
        {
            "buffer" : 0,
            "byteLength" : 4608,
            "byteOffset" : 148724
        },
        {
            "buffer" : 0,
            "byteLength" : 4608,
            "byteOffset" : 153332
        },
        {
            "buffer" : 0,
            "byteLength" : 3072,
            "byteOffset" : 157940
        },
        {
            "buffer" : 0,
            "byteLength" : 1488,
            "byteOffset" : 161012
        },
        {
            "buffer" : 0,
            "byteLength" : 29436876,
            "byteOffset" : 162500
        },
        {
            "buffer" : 0,
            "byteLength" : 29436876,
            "byteOffset" : 29599376
        },
        {
            "buffer" : 0,
            "byteLength" : 19624584,
            "byteOffset" : 59036252
        },
        {
            "buffer" : 0,
            "byteLength" : 14721648,
            "byteOffset" : 78660836
        },
        {
            "buffer" : 0,
            "byteLength" : 6048,
            "byteOffset" : 93382484
        },
        {
            "buffer" : 0,
            "byteLength" : 6048,
            "byteOffset" : 93388532
        },
        {
            "buffer" : 0,
            "byteLength" : 4032,
            "byteOffset" : 93394580
        },
        {
            "buffer" : 0,
            "byteLength" : 1992,
            "byteOffset" : 93398612
        }
    ],
    "buffers" : [
        {
            "byteLength" : 93400604,
            "uri" : "BANO2_V.bin"
        }
    ]
}
