{
    "asset" : {
        "generator" : "Khronos glTF Blender I/O v1.8.19",
        "version" : "2.0"
    },
    "scene" : 0,
    "scenes" : [
        {
            "name" : "Scene",
            "nodes" : [
                0
            ]
        }
    ],
    "nodes" : [
        {
            "mesh" : 0,
            "name" : "Cube",
            "scale" : [
                1.5412753820419312,
                0.28800177574157715,
                1.5789690017700195
            ],
            "translation" : [
                1.361469030380249,
                0.41864514350891113,
                -0.971778392791748
            ]
        }
    ],
    "materials" : [
        {
            "doubleSided" : true,
            "name" : "Material.003",
            "pbrMetallicRoughness" : {
                "baseColorFactor" : [
                    1,
                    1,
                    1,
                    1
                ],
                "metallicFactor" : 0,
                "roughnessFactor" : 0.4000000059604645
            }
        },
        {
            "doubleSided" : true,
            "name" : "Material.010",
            "pbrMetallicRoughness" : {
                "baseColorFactor" : [
                    0.5985909104347229,
                    0.8000000715255737,
                    0.777099609375,
                    1
                ],
                "metallicFactor" : 0,
                "roughnessFactor" : 0.5
            }
        },
        {
            "doubleSided" : true,
            "name" : "Material.004",
            "pbrMetallicRoughness" : {
                "baseColorFactor" : [
                    0.06372044235467911,
                    0.06372044235467911,
                    0.06372044235467911,
                    1
                ],
                "metallicFactor" : 0,
                "roughnessFactor" : 0.5
            }
        },
        {
            "doubleSided" : true,
            "name" : "Material.001",
            "pbrMetallicRoughness" : {
                "baseColorFactor" : [
                    0.5332759022712708,
                    0.5332761406898499,
                    0.46207693219184875,
                    1
                ],
                "metallicFactor" : 0,
                "roughnessFactor" : 0.5
            }
        },
        {
            "doubleSided" : true,
            "name" : "Material.007",
            "pbrMetallicRoughness" : {
                "baseColorFactor" : [
                    0.3672371804714203,
                    0.3672371804714203,
                    0.3672371804714203,
                    1
                ],
                "metallicFactor" : 0,
                "roughnessFactor" : 0.5
            }
        },
        {
            "doubleSided" : true,
            "name" : "Material.011",
            "pbrMetallicRoughness" : {
                "metallicFactor" : 0,
                "roughnessFactor" : 0.5
            }
        }
    ],
    "meshes" : [
        {
            "name" : "Cube.003",
            "primitives" : [
                {
                    "attributes" : {
                        "POSITION" : 0,
                        "NORMAL" : 1,
                        "TEXCOORD_0" : 2
                    },
                    "indices" : 3,
                    "material" : 0
                },
                {
                    "attributes" : {
                        "POSITION" : 4,
                        "NORMAL" : 5,
                        "TEXCOORD_0" : 6
                    },
                    "indices" : 7,
                    "material" : 1
                },
                {
                    "attributes" : {
                        "POSITION" : 8,
                        "NORMAL" : 9,
                        "TEXCOORD_0" : 10
                    },
                    "indices" : 11,
                    "material" : 2
                },
                {
                    "attributes" : {
                        "POSITION" : 12,
                        "NORMAL" : 13,
                        "TEXCOORD_0" : 14
                    },
                    "indices" : 15,
                    "material" : 3
                },
                {
                    "attributes" : {
                        "POSITION" : 16,
                        "NORMAL" : 17,
                        "TEXCOORD_0" : 18
                    },
                    "indices" : 19,
                    "material" : 4
                },
                {
                    "attributes" : {
                        "POSITION" : 20,
                        "NORMAL" : 21,
                        "TEXCOORD_0" : 22
                    },
                    "indices" : 23,
                    "material" : 5
                }
            ]
        }
    ],
    "accessors" : [
        {
            "bufferView" : 0,
            "componentType" : 5126,
            "count" : 589,
            "max" : [
                0.034904420375823975,
                -0.5324041843414307,
                0.7959544658660889
            ],
            "min" : [
                -1.1068271398544312,
                -1,
                -0.29062724113464355
            ],
            "type" : "VEC3"
        },
        {
            "bufferView" : 1,
            "componentType" : 5126,
            "count" : 589,
            "type" : "VEC3"
        },
        {
            "bufferView" : 2,
            "componentType" : 5126,
            "count" : 589,
            "type" : "VEC2"
        },
        {
            "bufferView" : 3,
            "componentType" : 5123,
            "count" : 960,
            "type" : "SCALAR"
        },
        {
            "bufferView" : 4,
            "componentType" : 5126,
            "count" : 1400,
            "max" : [
                0.0984845757484436,
                14.57508659362793,
                0.8829126358032227
            ],
            "min" : [
                -1.1954116821289062,
                -1.4742012023925781,
                -0.3461066782474518
            ],
            "type" : "VEC3"
        },
        {
            "bufferView" : 5,
            "componentType" : 5126,
            "count" : 1400,
            "type" : "VEC3"
        },
        {
            "bufferView" : 6,
            "componentType" : 5126,
            "count" : 1400,
            "type" : "VEC2"
        },
        {
            "bufferView" : 7,
            "componentType" : 5123,
            "count" : 3657,
            "type" : "SCALAR"
        },
        {
            "bufferView" : 8,
            "componentType" : 5126,
            "count" : 384,
            "max" : [
                0.046955108642578125,
                12.624364852905273,
                0.7840074896812439
            ],
            "min" : [
                -1.098231315612793,
                12.494171142578125,
                -0.29651200771331787
            ],
            "type" : "VEC3"
        },
        {
            "bufferView" : 9,
            "componentType" : 5126,
            "count" : 384,
            "type" : "VEC3"
        },
        {
            "bufferView" : 10,
            "componentType" : 5126,
            "count" : 384,
            "type" : "VEC2"
        },
        {
            "bufferView" : 11,
            "componentType" : 5123,
            "count" : 744,
            "type" : "SCALAR"
        },
        {
            "bufferView" : 12,
            "componentType" : 5126,
            "count" : 1600,
            "max" : [
                -0.06677430868148804,
                12.544319152832031,
                0.8208038210868835
            ],
            "min" : [
                -0.6396681666374207,
                -0.48392534255981445,
                0.7718273401260376
            ],
            "type" : "VEC3"
        },
        {
            "bufferView" : 13,
            "componentType" : 5126,
            "count" : 1600,
            "type" : "VEC3"
        },
        {
            "bufferView" : 14,
            "componentType" : 5126,
            "count" : 1600,
            "type" : "VEC2"
        },
        {
            "bufferView" : 15,
            "componentType" : 5123,
            "count" : 2400,
            "type" : "SCALAR"
        },
        {
            "bufferView" : 16,
            "componentType" : 5126,
            "count" : 2452591,
            "max" : [
                0.038378775119781494,
                14.087873458862305,
                0.47543829679489136
            ],
            "min" : [
                -1.0498006343841553,
                -0.9600802659988403,
                -0.28769761323928833
            ],
            "type" : "VEC3"
        },
        {
            "bufferView" : 17,
            "componentType" : 5126,
            "count" : 2452591,
            "type" : "VEC3"
        },
        {
            "bufferView" : 18,
            "componentType" : 5126,
            "count" : 2452591,
            "type" : "VEC2"
        },
        {
            "bufferView" : 19,
            "componentType" : 5125,
            "count" : 3680412,
            "type" : "SCALAR"
        },
        {
            "bufferView" : 20,
            "componentType" : 5126,
            "count" : 504,
            "max" : [
                -0.6107457280158997,
                10.764298439025879,
                -0.2776682376861572
            ],
            "min" : [
                -1.0049927234649658,
                7.95967960357666,
                -0.2886693477630615
            ],
            "type" : "VEC3"
        },
        {
            "bufferView" : 21,
            "componentType" : 5126,
            "count" : 504,
            "type" : "VEC3"
        },
        {
            "bufferView" : 22,
            "componentType" : 5126,
            "count" : 504,
            "type" : "VEC2"
        },
        {
            "bufferView" : 23,
            "componentType" : 5123,
            "count" : 996,
            "type" : "SCALAR"
        }
    ],
    "bufferViews" : [
        {
            "buffer" : 0,
            "byteLength" : 7068,
            "byteOffset" : 0
        },
        {
            "buffer" : 0,
            "byteLength" : 7068,
            "byteOffset" : 7068
        },
        {
            "buffer" : 0,
            "byteLength" : 4712,
            "byteOffset" : 14136
        },
        {
            "buffer" : 0,
            "byteLength" : 1920,
            "byteOffset" : 18848
        },
        {
            "buffer" : 0,
            "byteLength" : 16800,
            "byteOffset" : 20768
        },
        {
            "buffer" : 0,
            "byteLength" : 16800,
            "byteOffset" : 37568
        },
        {
            "buffer" : 0,
            "byteLength" : 11200,
            "byteOffset" : 54368
        },
        {
            "buffer" : 0,
            "byteLength" : 7314,
            "byteOffset" : 65568
        },
        {
            "buffer" : 0,
            "byteLength" : 4608,
            "byteOffset" : 72884
        },
        {
            "buffer" : 0,
            "byteLength" : 4608,
            "byteOffset" : 77492
        },
        {
            "buffer" : 0,
            "byteLength" : 3072,
            "byteOffset" : 82100
        },
        {
            "buffer" : 0,
            "byteLength" : 1488,
            "byteOffset" : 85172
        },
        {
            "buffer" : 0,
            "byteLength" : 19200,
            "byteOffset" : 86660
        },
        {
            "buffer" : 0,
            "byteLength" : 19200,
            "byteOffset" : 105860
        },
        {
            "buffer" : 0,
            "byteLength" : 12800,
            "byteOffset" : 125060
        },
        {
            "buffer" : 0,
            "byteLength" : 4800,
            "byteOffset" : 137860
        },
        {
            "buffer" : 0,
            "byteLength" : 29431092,
            "byteOffset" : 142660
        },
        {
            "buffer" : 0,
            "byteLength" : 29431092,
            "byteOffset" : 29573752
        },
        {
            "buffer" : 0,
            "byteLength" : 19620728,
            "byteOffset" : 59004844
        },
        {
            "buffer" : 0,
            "byteLength" : 14721648,
            "byteOffset" : 78625572
        },
        {
            "buffer" : 0,
            "byteLength" : 6048,
            "byteOffset" : 93347220
        },
        {
            "buffer" : 0,
            "byteLength" : 6048,
            "byteOffset" : 93353268
        },
        {
            "buffer" : 0,
            "byteLength" : 4032,
            "byteOffset" : 93359316
        },
        {
            "buffer" : 0,
            "byteLength" : 1992,
            "byteOffset" : 93363348
        }
    ],
    "buffers" : [
        {
            "byteLength" : 93365340,
            "uri" : "BANO3_G.bin"
        }
    ]
}
