{
    "asset" : {
        "generator" : "Khronos glTF Blender I/O v1.7.33",
        "version" : "2.0"
    },
    "scene" : 0,
    "scenes" : [
        {
            "name" : "Scene",
            "nodes" : [
                0
            ]
        }
    ],
    "nodes" : [
        {
            "mesh" : 0,
            "name" : "Cube",
            "translation" : [
                0,
                1.0930472612380981,
                0
            ]
        }
    ],
    "materials" : [
        {
            "doubleSided" : true,
            "name" : "Material",
            "pbrMetallicRoughness" : {
                "baseColorFactor" : [
                    0.029556741937994957,
                    0.10702306777238846,
                    0.02624124102294445,
                    1
                ],
                "metallicFactor" : 0,
                "roughnessFactor" : 0.4000000059604645
            }
        },
        {
            "doubleSided" : true,
            "name" : "Material.002",
            "pbrMetallicRoughness" : {
                "baseColorFactor" : [
                    1,
                    0.8787187337875366,
                    0.8394466042518616,
                    1
                ],
                "metallicFactor" : 0,
                "roughnessFactor" : 0.5
            }
        },
        {
            "doubleSided" : true,
            "name" : "Material.005",
            "pbrMetallicRoughness" : {
                "baseColorFactor" : [
                    0.7454035878181458,
                    0.6938714385032654,
                    0.6514056921005249,
                    1
                ],
                "metallicFactor" : 0,
                "roughnessFactor" : 0.5
            }
        }
    ],
    "meshes" : [
        {
            "name" : "Cube",
            "primitives" : [
                {
                    "attributes" : {
                        "POSITION" : 0,
                        "NORMAL" : 1,
                        "TEXCOORD_0" : 2
                    },
                    "indices" : 3,
                    "material" : 0
                },
                {
                    "attributes" : {
                        "POSITION" : 4,
                        "NORMAL" : 5,
                        "TEXCOORD_0" : 6
                    },
                    "indices" : 7,
                    "material" : 1
                },
                {
                    "attributes" : {
                        "POSITION" : 8,
                        "NORMAL" : 9,
                        "TEXCOORD_0" : 10
                    },
                    "indices" : 11,
                    "material" : 2
                }
            ]
        }
    ],
    "accessors" : [
        {
            "bufferView" : 0,
            "componentType" : 5126,
            "count" : 76,
            "max" : [
                1.7469823360443115,
                0.10643601417541504,
                1
            ],
            "min" : [
                -1,
                -0.35119950771331787,
                -2.988790512084961
            ],
            "type" : "VEC3"
        },
        {
            "bufferView" : 1,
            "componentType" : 5126,
            "count" : 76,
            "type" : "VEC3"
        },
        {
            "bufferView" : 2,
            "componentType" : 5126,
            "count" : 76,
            "type" : "VEC2"
        },
        {
            "bufferView" : 3,
            "componentType" : 5123,
            "count" : 108,
            "type" : "SCALAR"
        },
        {
            "bufferView" : 4,
            "componentType" : 5126,
            "count" : 2152572,
            "max" : [
                1.7355327606201172,
                1.6284571886062622,
                0.978946328163147
            ],
            "min" : [
                -0.9995404481887817,
                0.11018109321594238,
                -2.97314453125
            ],
            "type" : "VEC3"
        },
        {
            "bufferView" : 5,
            "componentType" : 5126,
            "count" : 2152572,
            "type" : "VEC3"
        },
        {
            "bufferView" : 6,
            "componentType" : 5126,
            "count" : 2152572,
            "type" : "VEC2"
        },
        {
            "bufferView" : 7,
            "componentType" : 5125,
            "count" : 3228864,
            "type" : "SCALAR"
        },
        {
            "bufferView" : 8,
            "componentType" : 5126,
            "count" : 170489,
            "max" : [
                1.749239444732666,
                1.3832776546478271,
                0.8103517889976501
            ],
            "min" : [
                -1.0657544136047363,
                0.13202619552612305,
                -2.8020212650299072
            ],
            "type" : "VEC3"
        },
        {
            "bufferView" : 9,
            "componentType" : 5126,
            "count" : 170489,
            "type" : "VEC3"
        },
        {
            "bufferView" : 10,
            "componentType" : 5126,
            "count" : 170489,
            "type" : "VEC2"
        },
        {
            "bufferView" : 11,
            "componentType" : 5125,
            "count" : 255936,
            "type" : "SCALAR"
        }
    ],
    "bufferViews" : [
        {
            "buffer" : 0,
            "byteLength" : 912,
            "byteOffset" : 0
        },
        {
            "buffer" : 0,
            "byteLength" : 912,
            "byteOffset" : 912
        },
        {
            "buffer" : 0,
            "byteLength" : 608,
            "byteOffset" : 1824
        },
        {
            "buffer" : 0,
            "byteLength" : 216,
            "byteOffset" : 2432
        },
        {
            "buffer" : 0,
            "byteLength" : 25830864,
            "byteOffset" : 2648
        },
        {
            "buffer" : 0,
            "byteLength" : 25830864,
            "byteOffset" : 25833512
        },
        {
            "buffer" : 0,
            "byteLength" : 17220576,
            "byteOffset" : 51664376
        },
        {
            "buffer" : 0,
            "byteLength" : 12915456,
            "byteOffset" : 68884952
        },
        {
            "buffer" : 0,
            "byteLength" : 2045868,
            "byteOffset" : 81800408
        },
        {
            "buffer" : 0,
            "byteLength" : 2045868,
            "byteOffset" : 83846276
        },
        {
            "buffer" : 0,
            "byteLength" : 1363912,
            "byteOffset" : 85892144
        },
        {
            "buffer" : 0,
            "byteLength" : 1023744,
            "byteOffset" : 87256056
        }
    ],
    "buffers" : [
        {
            "byteLength" : 88279800,
            "uri" : "CAMA2_V.bin"
        }
    ]
}
