{
    "asset" : {
        "generator" : "Khronos glTF Blender I/O v1.7.33",
        "version" : "2.0"
    },
    "scene" : 0,
    "scenes" : [
        {
            "name" : "Scene",
            "nodes" : [
                0
            ]
        }
    ],
    "nodes" : [
        {
            "mesh" : 0,
            "name" : "Cube.001",
            "translation" : [
                0,
                2.2027688026428223,
                -1.0689507722854614
            ]
        }
    ],
    "materials" : [
        {
            "doubleSided" : true,
            "name" : "Material.002",
            "pbrMetallicRoughness" : {
                "baseColorFactor" : [
                    1,
                    0.8787187337875366,
                    0.8394466042518616,
                    1
                ],
                "metallicFactor" : 0,
                "roughnessFactor" : 0.5
            }
        },
        {
            "doubleSided" : true,
            "name" : "Material",
            "pbrMetallicRoughness" : {
                "baseColorFactor" : [
                    0.5332766771316528,
                    0.5332765579223633,
                    0.4620770215988159,
                    1
                ],
                "metallicFactor" : 0,
                "roughnessFactor" : 0.4000000059604645
            }
        },
        {
            "doubleSided" : true,
            "name" : "Material.005",
            "pbrMetallicRoughness" : {
                "baseColorFactor" : [
                    0.3864295482635498,
                    0.34191447496414185,
                    0.34191447496414185,
                    1
                ],
                "metallicFactor" : 0,
                "roughnessFactor" : 0.5
            }
        }
    ],
    "meshes" : [
        {
            "name" : "Cube.002",
            "primitives" : [
                {
                    "attributes" : {
                        "POSITION" : 0,
                        "NORMAL" : 1,
                        "TEXCOORD_0" : 2
                    },
                    "indices" : 3,
                    "material" : 0
                },
                {
                    "attributes" : {
                        "POSITION" : 4,
                        "NORMAL" : 5,
                        "TEXCOORD_0" : 6
                    },
                    "indices" : 7,
                    "material" : 1
                },
                {
                    "attributes" : {
                        "POSITION" : 8,
                        "NORMAL" : 9,
                        "TEXCOORD_0" : 10
                    },
                    "indices" : 11,
                    "material" : 2
                }
            ]
        }
    ],
    "accessors" : [
        {
            "bufferView" : 0,
            "componentType" : 5126,
            "count" : 2152576,
            "max" : [
                1.7355327606201172,
                0.5187355875968933,
                2.0478971004486084
            ],
            "min" : [
                -0.9995404481887817,
                -0.9995404481887817,
                -1.9041937589645386
            ],
            "type" : "VEC3"
        },
        {
            "bufferView" : 1,
            "componentType" : 5126,
            "count" : 2152576,
            "type" : "VEC3"
        },
        {
            "bufferView" : 2,
            "componentType" : 5126,
            "count" : 2152576,
            "type" : "VEC2"
        },
        {
            "bufferView" : 3,
            "componentType" : 5125,
            "count" : 3228864,
            "type" : "SCALAR"
        },
        {
            "bufferView" : 4,
            "componentType" : 5126,
            "count" : 72,
            "max" : [
                1.7469823360443115,
                -1.003285527229309,
                2.068950653076172
            ],
            "min" : [
                -1,
                -1.460921049118042,
                -1.9198397397994995
            ],
            "type" : "VEC3"
        },
        {
            "bufferView" : 5,
            "componentType" : 5126,
            "count" : 72,
            "type" : "VEC3"
        },
        {
            "bufferView" : 6,
            "componentType" : 5126,
            "count" : 72,
            "type" : "VEC2"
        },
        {
            "bufferView" : 7,
            "componentType" : 5123,
            "count" : 108,
            "type" : "SCALAR"
        },
        {
            "bufferView" : 8,
            "componentType" : 5126,
            "count" : 169196,
            "max" : [
                1.749239444732666,
                0.2735561728477478,
                1.8793025016784668
            ],
            "min" : [
                -1.0657544136047363,
                -0.9776953458786011,
                -1.7330704927444458
            ],
            "type" : "VEC3"
        },
        {
            "bufferView" : 9,
            "componentType" : 5126,
            "count" : 169196,
            "type" : "VEC3"
        },
        {
            "bufferView" : 10,
            "componentType" : 5126,
            "count" : 169196,
            "type" : "VEC2"
        },
        {
            "bufferView" : 11,
            "componentType" : 5125,
            "count" : 255936,
            "type" : "SCALAR"
        }
    ],
    "bufferViews" : [
        {
            "buffer" : 0,
            "byteLength" : 25830912,
            "byteOffset" : 0
        },
        {
            "buffer" : 0,
            "byteLength" : 25830912,
            "byteOffset" : 25830912
        },
        {
            "buffer" : 0,
            "byteLength" : 17220608,
            "byteOffset" : 51661824
        },
        {
            "buffer" : 0,
            "byteLength" : 12915456,
            "byteOffset" : 68882432
        },
        {
            "buffer" : 0,
            "byteLength" : 864,
            "byteOffset" : 81797888
        },
        {
            "buffer" : 0,
            "byteLength" : 864,
            "byteOffset" : 81798752
        },
        {
            "buffer" : 0,
            "byteLength" : 576,
            "byteOffset" : 81799616
        },
        {
            "buffer" : 0,
            "byteLength" : 216,
            "byteOffset" : 81800192
        },
        {
            "buffer" : 0,
            "byteLength" : 2030352,
            "byteOffset" : 81800408
        },
        {
            "buffer" : 0,
            "byteLength" : 2030352,
            "byteOffset" : 83830760
        },
        {
            "buffer" : 0,
            "byteLength" : 1353568,
            "byteOffset" : 85861112
        },
        {
            "buffer" : 0,
            "byteLength" : 1023744,
            "byteOffset" : 87214680
        }
    ],
    "buffers" : [
        {
            "byteLength" : 88238424,
            "uri" : "CAMA2_G.bin"
        }
    ]
}
