{
    "asset" : {
        "generator" : "Khronos glTF Blender I/O v1.7.33",
        "version" : "2.0"
    },
    "scene" : 0,
    "scenes" : [
        {
            "name" : "Scene",
            "nodes" : [
                0
            ]
        }
    ],
    "nodes" : [
        {
            "mesh" : 0,
            "name" : "Cube",
            "translation" : [
                0,
                1.0930472612380981,
                0
            ]
        }
    ],
    "materials" : [
        {
            "doubleSided" : true,
            "name" : "Material",
            "pbrMetallicRoughness" : {
                "baseColorFactor" : [
                    0.43965715169906616,
                    0.24228110909461975,
                    0.11697071045637131,
                    1
                ],
                "metallicFactor" : 0,
                "roughnessFactor" : 0.4000000059604645
            }
        },
        {
            "doubleSided" : true,
            "name" : "Material.004",
            "pbrMetallicRoughness" : {
                "baseColorFactor" : [
                    0.37123793363571167,
                    0.3277781009674072,
                    0.3005438446998596,
                    1
                ],
                "metallicFactor" : 0,
                "roughnessFactor" : 0.5
            }
        },
        {
            "doubleSided" : true,
            "name" : "Material.003",
            "pbrMetallicRoughness" : {
                "baseColorFactor" : [
                    0.8000000715255737,
                    0.7152248620986938,
                    0.6717384457588196,
                    1
                ],
                "metallicFactor" : 0,
                "roughnessFactor" : 0.5
            }
        },
        {
            "doubleSided" : true,
            "name" : "Material.002",
            "pbrMetallicRoughness" : {
                "baseColorFactor" : [
                    1,
                    0.8787187337875366,
                    0.8394466042518616,
                    1
                ],
                "metallicFactor" : 0,
                "roughnessFactor" : 0.5
            }
        },
        {
            "doubleSided" : true,
            "name" : "Material.001",
            "pbrMetallicRoughness" : {
                "baseColorFactor" : [
                    0.7454035878181458,
                    0.6938714385032654,
                    0.6514056921005249,
                    1
                ],
                "metallicFactor" : 0,
                "roughnessFactor" : 0.5
            }
        }
    ],
    "meshes" : [
        {
            "name" : "Cube",
            "primitives" : [
                {
                    "attributes" : {
                        "POSITION" : 0,
                        "NORMAL" : 1,
                        "TEXCOORD_0" : 2
                    },
                    "indices" : 3,
                    "material" : 0
                },
                {
                    "attributes" : {
                        "POSITION" : 4,
                        "NORMAL" : 5,
                        "TEXCOORD_0" : 6
                    },
                    "indices" : 7,
                    "material" : 1
                },
                {
                    "attributes" : {
                        "POSITION" : 8,
                        "NORMAL" : 9,
                        "TEXCOORD_0" : 10
                    },
                    "indices" : 11,
                    "material" : 2
                },
                {
                    "attributes" : {
                        "POSITION" : 12,
                        "NORMAL" : 13,
                        "TEXCOORD_0" : 14
                    },
                    "indices" : 15,
                    "material" : 3
                },
                {
                    "attributes" : {
                        "POSITION" : 16,
                        "NORMAL" : 17,
                        "TEXCOORD_0" : 18
                    },
                    "indices" : 19,
                    "material" : 4
                }
            ]
        }
    ],
    "accessors" : [
        {
            "bufferView" : 0,
            "componentType" : 5126,
            "count" : 352,
            "max" : [
                1.7469823360443115,
                0.10643601417541504,
                1
            ],
            "min" : [
                -1,
                -1,
                -2.988790512084961
            ],
            "type" : "VEC3"
        },
        {
            "bufferView" : 1,
            "componentType" : 5126,
            "count" : 352,
            "type" : "VEC3"
        },
        {
            "bufferView" : 2,
            "componentType" : 5126,
            "count" : 352,
            "type" : "VEC2"
        },
        {
            "bufferView" : 3,
            "componentType" : 5123,
            "count" : 516,
            "type" : "SCALAR"
        },
        {
            "bufferView" : 4,
            "componentType" : 5126,
            "count" : 176050,
            "max" : [
                1.7360570430755615,
                0.6994861364364624,
                -0.7962278723716736
            ],
            "min" : [
                -0.9867371320724487,
                0.09313666820526123,
                -2.9659423828125
            ],
            "type" : "VEC3"
        },
        {
            "bufferView" : 5,
            "componentType" : 5126,
            "count" : 176050,
            "type" : "VEC3"
        },
        {
            "bufferView" : 6,
            "componentType" : 5126,
            "count" : 176050,
            "type" : "VEC2"
        },
        {
            "bufferView" : 7,
            "componentType" : 5125,
            "count" : 264576,
            "type" : "SCALAR"
        },
        {
            "bufferView" : 8,
            "componentType" : 5126,
            "count" : 43708,
            "max" : [
                1.7360570430755615,
                0.669837236404419,
                0.9921245574951172
            ],
            "min" : [
                -0.9868537187576294,
                0.10988497734069824,
                -0.03563257306814194
            ],
            "type" : "VEC3"
        },
        {
            "bufferView" : 9,
            "componentType" : 5126,
            "count" : 43708,
            "type" : "VEC3"
        },
        {
            "bufferView" : 10,
            "componentType" : 5126,
            "count" : 43708,
            "type" : "VEC2"
        },
        {
            "bufferView" : 11,
            "componentType" : 5123,
            "count" : 65664,
            "type" : "SCALAR"
        },
        {
            "bufferView" : 12,
            "componentType" : 5126,
            "count" : 79797,
            "max" : [
                1.7514163255691528,
                0.9822887778282166,
                0.9347048997879028
            ],
            "min" : [
                -1.002167820930481,
                0.06595432758331299,
                -0.7967449426651001
            ],
            "type" : "VEC3"
        },
        {
            "bufferView" : 13,
            "componentType" : 5126,
            "count" : 79797,
            "type" : "VEC3"
        },
        {
            "bufferView" : 14,
            "componentType" : 5126,
            "count" : 79797,
            "type" : "VEC2"
        },
        {
            "bufferView" : 15,
            "componentType" : 5125,
            "count" : 119712,
            "type" : "SCALAR"
        },
        {
            "bufferView" : 16,
            "componentType" : 5126,
            "count" : 4224,
            "max" : [
                1.4776904582977295,
                0.9984756708145142,
                0.9508960247039795
            ],
            "min" : [
                -0.6983979940414429,
                0.6759713888168335,
                0.0438116192817688
            ],
            "type" : "VEC3"
        },
        {
            "bufferView" : 17,
            "componentType" : 5126,
            "count" : 4224,
            "type" : "VEC3"
        },
        {
            "bufferView" : 18,
            "componentType" : 5126,
            "count" : 4224,
            "type" : "VEC2"
        },
        {
            "bufferView" : 19,
            "componentType" : 5123,
            "count" : 6336,
            "type" : "SCALAR"
        }
    ],
    "bufferViews" : [
        {
            "buffer" : 0,
            "byteLength" : 4224,
            "byteOffset" : 0
        },
        {
            "buffer" : 0,
            "byteLength" : 4224,
            "byteOffset" : 4224
        },
        {
            "buffer" : 0,
            "byteLength" : 2816,
            "byteOffset" : 8448
        },
        {
            "buffer" : 0,
            "byteLength" : 1032,
            "byteOffset" : 11264
        },
        {
            "buffer" : 0,
            "byteLength" : 2112600,
            "byteOffset" : 12296
        },
        {
            "buffer" : 0,
            "byteLength" : 2112600,
            "byteOffset" : 2124896
        },
        {
            "buffer" : 0,
            "byteLength" : 1408400,
            "byteOffset" : 4237496
        },
        {
            "buffer" : 0,
            "byteLength" : 1058304,
            "byteOffset" : 5645896
        },
        {
            "buffer" : 0,
            "byteLength" : 524496,
            "byteOffset" : 6704200
        },
        {
            "buffer" : 0,
            "byteLength" : 524496,
            "byteOffset" : 7228696
        },
        {
            "buffer" : 0,
            "byteLength" : 349664,
            "byteOffset" : 7753192
        },
        {
            "buffer" : 0,
            "byteLength" : 131328,
            "byteOffset" : 8102856
        },
        {
            "buffer" : 0,
            "byteLength" : 957564,
            "byteOffset" : 8234184
        },
        {
            "buffer" : 0,
            "byteLength" : 957564,
            "byteOffset" : 9191748
        },
        {
            "buffer" : 0,
            "byteLength" : 638376,
            "byteOffset" : 10149312
        },
        {
            "buffer" : 0,
            "byteLength" : 478848,
            "byteOffset" : 10787688
        },
        {
            "buffer" : 0,
            "byteLength" : 50688,
            "byteOffset" : 11266536
        },
        {
            "buffer" : 0,
            "byteLength" : 50688,
            "byteOffset" : 11317224
        },
        {
            "buffer" : 0,
            "byteLength" : 33792,
            "byteOffset" : 11367912
        },
        {
            "buffer" : 0,
            "byteLength" : 12672,
            "byteOffset" : 11401704
        }
    ],
    "buffers" : [
        {
            "byteLength" : 11414376,
            "uri" : "CAMA1_M.bin"
        }
    ]
}
