{
    "asset" : {
        "generator" : "Khronos glTF Blender I/O v1.7.33",
        "version" : "2.0"
    },
    "scene" : 0,
    "scenes" : [
        {
            "name" : "Scene",
            "nodes" : [
                0
            ]
        }
    ],
    "nodes" : [
        {
            "mesh" : 0,
            "name" : "Cube.003",
            "translation" : [
                0,
                2.6363320350646973,
                0
            ]
        }
    ],
    "materials" : [
        {
            "doubleSided" : true,
            "name" : "Material.005",
            "pbrMetallicRoughness" : {
                "baseColorFactor" : [
                    0.9301114082336426,
                    0.7605245113372803,
                    0.5271152257919312,
                    1
                ],
                "metallicFactor" : 0,
                "roughnessFactor" : 0.5
            }
        },
        {
            "doubleSided" : true,
            "name" : "Material",
            "pbrMetallicRoughness" : {
                "baseColorFactor" : [
                    0.43965715169906616,
                    0.24228110909461975,
                    0.11697071045637131,
                    1
                ],
                "metallicFactor" : 0,
                "roughnessFactor" : 0.4000000059604645
            }
        },
        {
            "doubleSided" : true,
            "name" : "Material.002",
            "pbrMetallicRoughness" : {
                "baseColorFactor" : [
                    1,
                    0.8787187337875366,
                    0.8394466042518616,
                    1
                ],
                "metallicFactor" : 0,
                "roughnessFactor" : 0.5
            }
        }
    ],
    "meshes" : [
        {
            "name" : "Cube.004",
            "primitives" : [
                {
                    "attributes" : {
                        "POSITION" : 0,
                        "NORMAL" : 1,
                        "TEXCOORD_0" : 2
                    },
                    "indices" : 3,
                    "material" : 0
                },
                {
                    "attributes" : {
                        "POSITION" : 4,
                        "NORMAL" : 5,
                        "TEXCOORD_0" : 6
                    },
                    "indices" : 7,
                    "material" : 1
                },
                {
                    "attributes" : {
                        "POSITION" : 8,
                        "NORMAL" : 9,
                        "TEXCOORD_0" : 10
                    },
                    "indices" : 11,
                    "material" : 2
                }
            ]
        }
    ],
    "accessors" : [
        {
            "bufferView" : 0,
            "componentType" : 5126,
            "count" : 169196,
            "max" : [
                1.749239444732666,
                -0.1600070595741272,
                0.8103517889976501
            ],
            "min" : [
                -1.0657544136047363,
                -1.411258578300476,
                -2.8020212650299072
            ],
            "type" : "VEC3"
        },
        {
            "bufferView" : 1,
            "componentType" : 5126,
            "count" : 169196,
            "type" : "VEC3"
        },
        {
            "bufferView" : 2,
            "componentType" : 5126,
            "count" : 169196,
            "type" : "VEC2"
        },
        {
            "bufferView" : 3,
            "componentType" : 5125,
            "count" : 255936,
            "type" : "SCALAR"
        },
        {
            "bufferView" : 4,
            "componentType" : 5126,
            "count" : 72,
            "max" : [
                1.7469823360443115,
                -1.436848759651184,
                1
            ],
            "min" : [
                -1,
                -1.894484281539917,
                -2.988790512084961
            ],
            "type" : "VEC3"
        },
        {
            "bufferView" : 5,
            "componentType" : 5126,
            "count" : 72,
            "type" : "VEC3"
        },
        {
            "bufferView" : 6,
            "componentType" : 5126,
            "count" : 72,
            "type" : "VEC2"
        },
        {
            "bufferView" : 7,
            "componentType" : 5123,
            "count" : 108,
            "type" : "SCALAR"
        },
        {
            "bufferView" : 8,
            "componentType" : 5126,
            "count" : 2152576,
            "max" : [
                1.7355327606201172,
                0.0851723700761795,
                0.978946328163147
            ],
            "min" : [
                -0.9995404481887817,
                -1.4331036806106567,
                -2.97314453125
            ],
            "type" : "VEC3"
        },
        {
            "bufferView" : 9,
            "componentType" : 5126,
            "count" : 2152576,
            "type" : "VEC3"
        },
        {
            "bufferView" : 10,
            "componentType" : 5126,
            "count" : 2152576,
            "type" : "VEC2"
        },
        {
            "bufferView" : 11,
            "componentType" : 5125,
            "count" : 3228864,
            "type" : "SCALAR"
        }
    ],
    "bufferViews" : [
        {
            "buffer" : 0,
            "byteLength" : 2030352,
            "byteOffset" : 0
        },
        {
            "buffer" : 0,
            "byteLength" : 2030352,
            "byteOffset" : 2030352
        },
        {
            "buffer" : 0,
            "byteLength" : 1353568,
            "byteOffset" : 4060704
        },
        {
            "buffer" : 0,
            "byteLength" : 1023744,
            "byteOffset" : 5414272
        },
        {
            "buffer" : 0,
            "byteLength" : 864,
            "byteOffset" : 6438016
        },
        {
            "buffer" : 0,
            "byteLength" : 864,
            "byteOffset" : 6438880
        },
        {
            "buffer" : 0,
            "byteLength" : 576,
            "byteOffset" : 6439744
        },
        {
            "buffer" : 0,
            "byteLength" : 216,
            "byteOffset" : 6440320
        },
        {
            "buffer" : 0,
            "byteLength" : 25830912,
            "byteOffset" : 6440536
        },
        {
            "buffer" : 0,
            "byteLength" : 25830912,
            "byteOffset" : 32271448
        },
        {
            "buffer" : 0,
            "byteLength" : 17220608,
            "byteOffset" : 58102360
        },
        {
            "buffer" : 0,
            "byteLength" : 12915456,
            "byteOffset" : 75322968
        }
    ],
    "buffers" : [
        {
            "byteLength" : 88238424,
            "uri" : "CAMA2_M.bin"
        }
    ]
}
