{
    "asset" : {
        "generator" : "Khronos glTF Blender I/O v1.7.33",
        "version" : "2.0"
    },
    "scene" : 0,
    "scenes" : [
        {
            "name" : "Scene",
            "nodes" : [
                0
            ]
        }
    ],
    "nodes" : [
        {
            "mesh" : 0,
            "name" : "Cube.005",
            "translation" : [
                0.052177056670188904,
                2.7826075553894043,
                -0.0649956688284874
            ]
        }
    ],
    "materials" : [
        {
            "doubleSided" : true,
            "name" : "Material.001",
            "pbrMetallicRoughness" : {
                "baseColorFactor" : [
                    0.7454035878181458,
                    0.6938714385032654,
                    0.6514056921005249,
                    1
                ],
                "metallicFactor" : 0,
                "roughnessFactor" : 0.5
            }
        },
        {
            "doubleSided" : true,
            "name" : "Material",
            "pbrMetallicRoughness" : {
                "baseColorFactor" : [
                    0.029556741937994957,
                    0.10702306777238846,
                    0.02624124102294445,
                    1
                ],
                "metallicFactor" : 0,
                "roughnessFactor" : 0.4000000059604645
            }
        },
        {
            "doubleSided" : true,
            "name" : "Material.004",
            "pbrMetallicRoughness" : {
                "baseColorFactor" : [
                    0.7454035878181458,
                    0.6938714385032654,
                    0.6514056921005249,
                    1
                ],
                "metallicFactor" : 0,
                "roughnessFactor" : 0.5
            }
        },
        {
            "doubleSided" : true,
            "name" : "Material.003",
            "pbrMetallicRoughness" : {
                "baseColorFactor" : [
                    0.8000000715255737,
                    0.7152248620986938,
                    0.6717384457588196,
                    1
                ],
                "metallicFactor" : 0,
                "roughnessFactor" : 0.5
            }
        },
        {
            "doubleSided" : true,
            "name" : "Material.002",
            "pbrMetallicRoughness" : {
                "baseColorFactor" : [
                    1,
                    0.8787187337875366,
                    0.8394466042518616,
                    1
                ],
                "metallicFactor" : 0,
                "roughnessFactor" : 0.5
            }
        }
    ],
    "meshes" : [
        {
            "name" : "Cube.007",
            "primitives" : [
                {
                    "attributes" : {
                        "POSITION" : 0,
                        "NORMAL" : 1,
                        "TEXCOORD_0" : 2
                    },
                    "indices" : 3,
                    "material" : 0
                },
                {
                    "attributes" : {
                        "POSITION" : 4,
                        "NORMAL" : 5,
                        "TEXCOORD_0" : 6
                    },
                    "indices" : 7,
                    "material" : 1
                },
                {
                    "attributes" : {
                        "POSITION" : 8,
                        "NORMAL" : 9,
                        "TEXCOORD_0" : 10
                    },
                    "indices" : 11,
                    "material" : 2
                },
                {
                    "attributes" : {
                        "POSITION" : 12,
                        "NORMAL" : 13,
                        "TEXCOORD_0" : 14
                    },
                    "indices" : 15,
                    "material" : 3
                },
                {
                    "attributes" : {
                        "POSITION" : 16,
                        "NORMAL" : 17,
                        "TEXCOORD_0" : 18
                    },
                    "indices" : 19,
                    "material" : 4
                }
            ]
        }
    ],
    "accessors" : [
        {
            "bufferView" : 0,
            "componentType" : 5126,
            "count" : 4224,
            "max" : [
                1.4255133867263794,
                -0.691084623336792,
                1.015891671180725
            ],
            "min" : [
                -0.750575065612793,
                -1.0135889053344727,
                0.1088072881102562
            ],
            "type" : "VEC3"
        },
        {
            "bufferView" : 1,
            "componentType" : 5126,
            "count" : 4224,
            "type" : "VEC3"
        },
        {
            "bufferView" : 2,
            "componentType" : 5126,
            "count" : 4224,
            "type" : "VEC2"
        },
        {
            "bufferView" : 3,
            "componentType" : 5123,
            "count" : 6336,
            "type" : "SCALAR"
        },
        {
            "bufferView" : 4,
            "componentType" : 5126,
            "count" : 352,
            "max" : [
                1.6948052644729614,
                -1.5831242799758911,
                1.0649956464767456
            ],
            "min" : [
                -1.05217707157135,
                -2.6895604133605957,
                -2.923794746398926
            ],
            "type" : "VEC3"
        },
        {
            "bufferView" : 5,
            "componentType" : 5126,
            "count" : 352,
            "type" : "VEC3"
        },
        {
            "bufferView" : 6,
            "componentType" : 5126,
            "count" : 352,
            "type" : "VEC2"
        },
        {
            "bufferView" : 7,
            "componentType" : 5123,
            "count" : 516,
            "type" : "SCALAR"
        },
        {
            "bufferView" : 8,
            "componentType" : 5126,
            "count" : 174646,
            "max" : [
                1.6838799715042114,
                -0.9900741577148438,
                -0.731232225894928
            ],
            "min" : [
                -1.0389142036437988,
                -1.596423625946045,
                -2.900946617126465
            ],
            "type" : "VEC3"
        },
        {
            "bufferView" : 9,
            "componentType" : 5126,
            "count" : 174646,
            "type" : "VEC3"
        },
        {
            "bufferView" : 10,
            "componentType" : 5126,
            "count" : 174646,
            "type" : "VEC2"
        },
        {
            "bufferView" : 11,
            "componentType" : 5125,
            "count" : 264576,
            "type" : "SCALAR"
        },
        {
            "bufferView" : 12,
            "componentType" : 5126,
            "count" : 43216,
            "max" : [
                1.6838799715042114,
                -1.0197230577468872,
                1.0571202039718628
            ],
            "min" : [
                -1.0390307903289795,
                -1.579675316810608,
                0.029363097622990608
            ],
            "type" : "VEC3"
        },
        {
            "bufferView" : 13,
            "componentType" : 5126,
            "count" : 43216,
            "type" : "VEC3"
        },
        {
            "bufferView" : 14,
            "componentType" : 5126,
            "count" : 43216,
            "type" : "VEC2"
        },
        {
            "bufferView" : 15,
            "componentType" : 5123,
            "count" : 65664,
            "type" : "SCALAR"
        },
        {
            "bufferView" : 16,
            "componentType" : 5126,
            "count" : 79727,
            "max" : [
                1.6992392539978027,
                -0.7072715163230896,
                0.9997005462646484
            ],
            "min" : [
                -1.054344892501831,
                -1.6236059665679932,
                -0.7317492961883545
            ],
            "type" : "VEC3"
        },
        {
            "bufferView" : 17,
            "componentType" : 5126,
            "count" : 79727,
            "type" : "VEC3"
        },
        {
            "bufferView" : 18,
            "componentType" : 5126,
            "count" : 79727,
            "type" : "VEC2"
        },
        {
            "bufferView" : 19,
            "componentType" : 5125,
            "count" : 119712,
            "type" : "SCALAR"
        }
    ],
    "bufferViews" : [
        {
            "buffer" : 0,
            "byteLength" : 50688,
            "byteOffset" : 0
        },
        {
            "buffer" : 0,
            "byteLength" : 50688,
            "byteOffset" : 50688
        },
        {
            "buffer" : 0,
            "byteLength" : 33792,
            "byteOffset" : 101376
        },
        {
            "buffer" : 0,
            "byteLength" : 12672,
            "byteOffset" : 135168
        },
        {
            "buffer" : 0,
            "byteLength" : 4224,
            "byteOffset" : 147840
        },
        {
            "buffer" : 0,
            "byteLength" : 4224,
            "byteOffset" : 152064
        },
        {
            "buffer" : 0,
            "byteLength" : 2816,
            "byteOffset" : 156288
        },
        {
            "buffer" : 0,
            "byteLength" : 1032,
            "byteOffset" : 159104
        },
        {
            "buffer" : 0,
            "byteLength" : 2095752,
            "byteOffset" : 160136
        },
        {
            "buffer" : 0,
            "byteLength" : 2095752,
            "byteOffset" : 2255888
        },
        {
            "buffer" : 0,
            "byteLength" : 1397168,
            "byteOffset" : 4351640
        },
        {
            "buffer" : 0,
            "byteLength" : 1058304,
            "byteOffset" : 5748808
        },
        {
            "buffer" : 0,
            "byteLength" : 518592,
            "byteOffset" : 6807112
        },
        {
            "buffer" : 0,
            "byteLength" : 518592,
            "byteOffset" : 7325704
        },
        {
            "buffer" : 0,
            "byteLength" : 345728,
            "byteOffset" : 7844296
        },
        {
            "buffer" : 0,
            "byteLength" : 131328,
            "byteOffset" : 8190024
        },
        {
            "buffer" : 0,
            "byteLength" : 956724,
            "byteOffset" : 8321352
        },
        {
            "buffer" : 0,
            "byteLength" : 956724,
            "byteOffset" : 9278076
        },
        {
            "buffer" : 0,
            "byteLength" : 637816,
            "byteOffset" : 10234800
        },
        {
            "buffer" : 0,
            "byteLength" : 478848,
            "byteOffset" : 10872616
        }
    ],
    "buffers" : [
        {
            "byteLength" : 11351464,
            "uri" : "CAMA1_V.bin"
        }
    ]
}
