{
    "asset" : {
        "generator" : "Khronos glTF Blender I/O v1.7.33",
        "version" : "2.0"
    },
    "scene" : 0,
    "scenes" : [
        {
            "name" : "Scene",
            "nodes" : [
                0
            ]
        }
    ],
    "nodes" : [
        {
            "mesh" : 0,
            "name" : "Cube.006",
            "translation" : [
                0,
                1.4994573593139648,
                1.6123168468475342
            ]
        }
    ],
    "materials" : [
        {
            "doubleSided" : true,
            "name" : "Material.002",
            "pbrMetallicRoughness" : {
                "baseColorFactor" : [
                    0.5332766771316528,
                    0.5332765579223633,
                    0.4620770215988159,
                    1
                ],
                "metallicFactor" : 0,
                "roughnessFactor" : 0.5
            }
        },
        {
            "doubleSided" : true,
            "name" : "Material.001",
            "pbrMetallicRoughness" : {
                "baseColorFactor" : [
                    0.4578239619731903,
                    0.45782384276390076,
                    0.39697781205177307,
                    1
                ],
                "metallicFactor" : 0,
                "roughnessFactor" : 0.5
            }
        },
        {
            "doubleSided" : true,
            "name" : "Material.010",
            "pbrMetallicRoughness" : {
                "baseColorFactor" : [
                    0.5332766771316528,
                    0.5332765579223633,
                    0.4620770215988159,
                    1
                ],
                "metallicFactor" : 0,
                "roughnessFactor" : 0.5
            }
        },
        {
            "doubleSided" : true,
            "name" : "Material.009",
            "pbrMetallicRoughness" : {
                "baseColorFactor" : [
                    0.5332766771316528,
                    0.5332765579223633,
                    0.4620770215988159,
                    1
                ],
                "metallicFactor" : 0,
                "roughnessFactor" : 0.5
            }
        },
        {
            "doubleSided" : true,
            "name" : "Material.003",
            "pbrMetallicRoughness" : {
                "baseColorFactor" : [
                    1,
                    1,
                    1,
                    1
                ],
                "metallicFactor" : 0,
                "roughnessFactor" : 0.4000000059604645
            }
        },
        {
            "doubleSided" : true,
            "name" : "Material.006",
            "pbrMetallicRoughness" : {
                "baseColorFactor" : [
                    0.02909955009818077,
                    0.02909955009818077,
                    0.02909955009818077,
                    1
                ],
                "metallicFactor" : 0,
                "roughnessFactor" : 0.5
            }
        },
        {
            "doubleSided" : true,
            "name" : "Material.008",
            "pbrMetallicRoughness" : {
                "metallicFactor" : 0,
                "roughnessFactor" : 0.5
            }
        },
        {
            "doubleSided" : true,
            "name" : "Material.004",
            "pbrMetallicRoughness" : {
                "baseColorFactor" : [
                    0.010021816939115524,
                    0.010021816939115524,
                    0.010021816939115524,
                    1
                ],
                "metallicFactor" : 0,
                "roughnessFactor" : 0.5
            }
        },
        {
            "doubleSided" : true,
            "name" : "Material.007",
            "pbrMetallicRoughness" : {
                "baseColorFactor" : [
                    0.18446944653987885,
                    0.18446944653987885,
                    0.18446944653987885,
                    1
                ],
                "metallicFactor" : 0,
                "roughnessFactor" : 0.5
            }
        }
    ],
    "meshes" : [
        {
            "name" : "Cube.004",
            "primitives" : [
                {
                    "attributes" : {
                        "POSITION" : 0,
                        "NORMAL" : 1,
                        "TEXCOORD_0" : 2
                    },
                    "indices" : 3,
                    "material" : 0
                },
                {
                    "attributes" : {
                        "POSITION" : 4,
                        "NORMAL" : 5,
                        "TEXCOORD_0" : 6
                    },
                    "indices" : 7,
                    "material" : 1
                },
                {
                    "attributes" : {
                        "POSITION" : 8,
                        "NORMAL" : 9,
                        "TEXCOORD_0" : 10
                    },
                    "indices" : 11,
                    "material" : 2
                },
                {
                    "attributes" : {
                        "POSITION" : 12,
                        "NORMAL" : 13,
                        "TEXCOORD_0" : 14
                    },
                    "indices" : 11,
                    "material" : 3
                },
                {
                    "attributes" : {
                        "POSITION" : 15,
                        "NORMAL" : 16,
                        "TEXCOORD_0" : 17
                    },
                    "indices" : 18,
                    "material" : 4
                },
                {
                    "attributes" : {
                        "POSITION" : 19,
                        "NORMAL" : 20,
                        "TEXCOORD_0" : 21
                    },
                    "indices" : 22,
                    "material" : 5
                },
                {
                    "attributes" : {
                        "POSITION" : 23,
                        "NORMAL" : 24,
                        "TEXCOORD_0" : 25
                    },
                    "indices" : 26,
                    "material" : 6
                },
                {
                    "attributes" : {
                        "POSITION" : 27,
                        "NORMAL" : 28,
                        "TEXCOORD_0" : 29
                    },
                    "indices" : 30,
                    "material" : 7
                },
                {
                    "attributes" : {
                        "POSITION" : 31,
                        "NORMAL" : 32,
                        "TEXCOORD_0" : 33
                    },
                    "indices" : 34,
                    "material" : 8
                }
            ]
        }
    ],
    "accessors" : [
        {
            "bufferView" : 0,
            "componentType" : 5126,
            "count" : 628,
            "max" : [
                0.4119107723236084,
                0.9655054807662964,
                -1.1966575384140015
            ],
            "min" : [
                -1.0347994565963745,
                -1,
                -1.89614737033844
            ],
            "type" : "VEC3"
        },
        {
            "bufferView" : 1,
            "componentType" : 5126,
            "count" : 628,
            "type" : "VEC3"
        },
        {
            "bufferView" : 2,
            "componentType" : 5126,
            "count" : 628,
            "type" : "VEC2"
        },
        {
            "bufferView" : 3,
            "componentType" : 5123,
            "count" : 1386,
            "type" : "SCALAR"
        },
        {
            "bufferView" : 4,
            "componentType" : 5126,
            "count" : 397949,
            "max" : [
                0.4119107723236084,
                2.2301366329193115,
                -3.816624164581299
            ],
            "min" : [
                -1.094699501991272,
                -1,
                -6.875810146331787
            ],
            "type" : "VEC3"
        },
        {
            "bufferView" : 5,
            "componentType" : 5126,
            "count" : 397949,
            "type" : "VEC3"
        },
        {
            "bufferView" : 6,
            "componentType" : 5126,
            "count" : 397949,
            "type" : "VEC2"
        },
        {
            "bufferView" : 7,
            "componentType" : 5125,
            "count" : 597288,
            "type" : "SCALAR"
        },
        {
            "bufferView" : 8,
            "componentType" : 5126,
            "count" : 192,
            "max" : [
                -1.037489652633667,
                0.4744012653827667,
                -1.7781487703323364
            ],
            "min" : [
                -1.094699501991272,
                0.42567893862724304,
                -1.8268619775772095
            ],
            "type" : "VEC3"
        },
        {
            "bufferView" : 9,
            "componentType" : 5126,
            "count" : 192,
            "type" : "VEC3"
        },
        {
            "bufferView" : 10,
            "componentType" : 5126,
            "count" : 192,
            "type" : "VEC2"
        },
        {
            "bufferView" : 11,
            "componentType" : 5123,
            "count" : 372,
            "type" : "SCALAR"
        },
        {
            "bufferView" : 12,
            "componentType" : 5126,
            "count" : 192,
            "max" : [
                -1.0078145265579224,
                0.7868407964706421,
                -1.5299128293991089
            ],
            "min" : [
                -1.0650243759155273,
                0.7381184697151184,
                -1.578626036643982
            ],
            "type" : "VEC3"
        },
        {
            "bufferView" : 13,
            "componentType" : 5126,
            "count" : 192,
            "type" : "VEC3"
        },
        {
            "bufferView" : 14,
            "componentType" : 5126,
            "count" : 192,
            "type" : "VEC2"
        },
        {
            "bufferView" : 15,
            "componentType" : 5126,
            "count" : 911,
            "max" : [
                0.41430985927581787,
                1.088590383529663,
                -1.152583360671997
            ],
            "min" : [
                -1.1068271398544312,
                0.6209945678710938,
                -6.883053779602051
            ],
            "type" : "VEC3"
        },
        {
            "bufferView" : 16,
            "componentType" : 5126,
            "count" : 911,
            "type" : "VEC3"
        },
        {
            "bufferView" : 17,
            "componentType" : 5126,
            "count" : 911,
            "type" : "VEC2"
        },
        {
            "bufferView" : 18,
            "componentType" : 5123,
            "count" : 1560,
            "type" : "SCALAR"
        },
        {
            "bufferView" : 19,
            "componentType" : 5126,
            "count" : 66,
            "max" : [
                -1.0057225227355957,
                1.0037788152694702,
                -5.577975273132324
            ],
            "min" : [
                -1.0586352348327637,
                -0.10832703113555908,
                -6.680635452270508
            ],
            "type" : "VEC3"
        },
        {
            "bufferView" : 20,
            "componentType" : 5126,
            "count" : 66,
            "type" : "VEC3"
        },
        {
            "bufferView" : 21,
            "componentType" : 5126,
            "count" : 66,
            "type" : "VEC2"
        },
        {
            "bufferView" : 22,
            "componentType" : 5123,
            "count" : 108,
            "type" : "SCALAR"
        },
        {
            "bufferView" : 23,
            "componentType" : 5126,
            "count" : 52,
            "max" : [
                -0.00939953327178955,
                1.0343610048294067,
                -5.577975273132324
            ],
            "min" : [
                -1.0740619897842407,
                1.0113704204559326,
                -6.680635452270508
            ],
            "type" : "VEC3"
        },
        {
            "bufferView" : 24,
            "componentType" : 5126,
            "count" : 52,
            "type" : "VEC3"
        },
        {
            "bufferView" : 25,
            "componentType" : 5126,
            "count" : 52,
            "type" : "VEC2"
        },
        {
            "bufferView" : 26,
            "componentType" : 5123,
            "count" : 84,
            "type" : "SCALAR"
        },
        {
            "bufferView" : 27,
            "componentType" : 5126,
            "count" : 4084,
            "max" : [
                -0.07825694978237152,
                1.0850242376327515,
                -5.577975273132324
            ],
            "min" : [
                -1.0774059295654297,
                -0.08409939706325531,
                -6.680635452270508
            ],
            "type" : "VEC3"
        },
        {
            "bufferView" : 28,
            "componentType" : 5126,
            "count" : 4084,
            "type" : "VEC3"
        },
        {
            "bufferView" : 29,
            "componentType" : 5126,
            "count" : 4084,
            "type" : "VEC2"
        },
        {
            "bufferView" : 30,
            "componentType" : 5123,
            "count" : 9540,
            "type" : "SCALAR"
        },
        {
            "bufferView" : 31,
            "componentType" : 5126,
            "count" : 1176,
            "max" : [
                -1.066668152809143,
                0.9549207091331482,
                -5.664793491363525
            ],
            "min" : [
                -1.172659158706665,
                0.7277214527130127,
                -6.597909450531006
            ],
            "type" : "VEC3"
        },
        {
            "bufferView" : 32,
            "componentType" : 5126,
            "count" : 1176,
            "type" : "VEC3"
        },
        {
            "bufferView" : 33,
            "componentType" : 5126,
            "count" : 1176,
            "type" : "VEC2"
        },
        {
            "bufferView" : 34,
            "componentType" : 5123,
            "count" : 2304,
            "type" : "SCALAR"
        }
    ],
    "bufferViews" : [
        {
            "buffer" : 0,
            "byteLength" : 7536,
            "byteOffset" : 0
        },
        {
            "buffer" : 0,
            "byteLength" : 7536,
            "byteOffset" : 7536
        },
        {
            "buffer" : 0,
            "byteLength" : 5024,
            "byteOffset" : 15072
        },
        {
            "buffer" : 0,
            "byteLength" : 2772,
            "byteOffset" : 20096
        },
        {
            "buffer" : 0,
            "byteLength" : 4775388,
            "byteOffset" : 22868
        },
        {
            "buffer" : 0,
            "byteLength" : 4775388,
            "byteOffset" : 4798256
        },
        {
            "buffer" : 0,
            "byteLength" : 3183592,
            "byteOffset" : 9573644
        },
        {
            "buffer" : 0,
            "byteLength" : 2389152,
            "byteOffset" : 12757236
        },
        {
            "buffer" : 0,
            "byteLength" : 2304,
            "byteOffset" : 15146388
        },
        {
            "buffer" : 0,
            "byteLength" : 2304,
            "byteOffset" : 15148692
        },
        {
            "buffer" : 0,
            "byteLength" : 1536,
            "byteOffset" : 15150996
        },
        {
            "buffer" : 0,
            "byteLength" : 744,
            "byteOffset" : 15152532
        },
        {
            "buffer" : 0,
            "byteLength" : 2304,
            "byteOffset" : 15153276
        },
        {
            "buffer" : 0,
            "byteLength" : 2304,
            "byteOffset" : 15155580
        },
        {
            "buffer" : 0,
            "byteLength" : 1536,
            "byteOffset" : 15157884
        },
        {
            "buffer" : 0,
            "byteLength" : 10932,
            "byteOffset" : 15159420
        },
        {
            "buffer" : 0,
            "byteLength" : 10932,
            "byteOffset" : 15170352
        },
        {
            "buffer" : 0,
            "byteLength" : 7288,
            "byteOffset" : 15181284
        },
        {
            "buffer" : 0,
            "byteLength" : 3120,
            "byteOffset" : 15188572
        },
        {
            "buffer" : 0,
            "byteLength" : 792,
            "byteOffset" : 15191692
        },
        {
            "buffer" : 0,
            "byteLength" : 792,
            "byteOffset" : 15192484
        },
        {
            "buffer" : 0,
            "byteLength" : 528,
            "byteOffset" : 15193276
        },
        {
            "buffer" : 0,
            "byteLength" : 216,
            "byteOffset" : 15193804
        },
        {
            "buffer" : 0,
            "byteLength" : 624,
            "byteOffset" : 15194020
        },
        {
            "buffer" : 0,
            "byteLength" : 624,
            "byteOffset" : 15194644
        },
        {
            "buffer" : 0,
            "byteLength" : 416,
            "byteOffset" : 15195268
        },
        {
            "buffer" : 0,
            "byteLength" : 168,
            "byteOffset" : 15195684
        },
        {
            "buffer" : 0,
            "byteLength" : 49008,
            "byteOffset" : 15195852
        },
        {
            "buffer" : 0,
            "byteLength" : 49008,
            "byteOffset" : 15244860
        },
        {
            "buffer" : 0,
            "byteLength" : 32672,
            "byteOffset" : 15293868
        },
        {
            "buffer" : 0,
            "byteLength" : 19080,
            "byteOffset" : 15326540
        },
        {
            "buffer" : 0,
            "byteLength" : 14112,
            "byteOffset" : 15345620
        },
        {
            "buffer" : 0,
            "byteLength" : 14112,
            "byteOffset" : 15359732
        },
        {
            "buffer" : 0,
            "byteLength" : 9408,
            "byteOffset" : 15373844
        },
        {
            "buffer" : 0,
            "byteLength" : 4608,
            "byteOffset" : 15383252
        }
    ],
    "buffers" : [
        {
            "byteLength" : 15387860,
            "uri" : "COCINA1_G.bin"
        }
    ]
}
