{
    "asset" : {
        "generator" : "Khronos glTF Blender I/O v1.7.33",
        "version" : "2.0"
    },
    "scene" : 0,
    "scenes" : [
        {
            "name" : "Scene",
            "nodes" : [
                0
            ]
        }
    ],
    "nodes" : [
        {
            "mesh" : 0,
            "name" : "Cube.002",
            "translation" : [
                0,
                1.4994573593139648,
                -3.3673462867736816
            ]
        }
    ],
    "materials" : [
        {
            "doubleSided" : true,
            "name" : "Material.001",
            "pbrMetallicRoughness" : {
                "baseColorFactor" : [
                    0.5332766771316528,
                    0.5332765579223633,
                    0.4620770215988159,
                    1
                ],
                "metallicFactor" : 0,
                "roughnessFactor" : 0.5
            }
        },
        {
            "doubleSided" : true,
            "name" : "Material.003",
            "pbrMetallicRoughness" : {
                "baseColorFactor" : [
                    1,
                    1,
                    1,
                    1
                ],
                "metallicFactor" : 0,
                "roughnessFactor" : 0.4000000059604645
            }
        }
    ],
    "meshes" : [
        {
            "name" : "Cube.001",
            "primitives" : [
                {
                    "attributes" : {
                        "POSITION" : 0,
                        "NORMAL" : 1,
                        "TEXCOORD_0" : 2
                    },
                    "indices" : 3,
                    "material" : 0
                },
                {
                    "attributes" : {
                        "POSITION" : 4,
                        "NORMAL" : 5,
                        "TEXCOORD_0" : 6
                    },
                    "indices" : 7,
                    "material" : 1
                }
            ]
        }
    ],
    "accessors" : [
        {
            "bufferView" : 0,
            "componentType" : 5126,
            "count" : 397919,
            "max" : [
                0.4119107723236084,
                2.2301366329193115,
                1.163038730621338
            ],
            "min" : [
                -1.094699501991272,
                -1,
                -0.571696400642395
            ],
            "type" : "VEC3"
        },
        {
            "bufferView" : 1,
            "componentType" : 5126,
            "count" : 397919,
            "type" : "VEC3"
        },
        {
            "bufferView" : 2,
            "componentType" : 5126,
            "count" : 397919,
            "type" : "VEC2"
        },
        {
            "bufferView" : 3,
            "componentType" : 5125,
            "count" : 597240,
            "type" : "SCALAR"
        },
        {
            "bufferView" : 4,
            "componentType" : 5126,
            "count" : 750,
            "max" : [
                0.41430985927581787,
                1.088590383529663,
                1.1986994743347168
            ],
            "min" : [
                -1.1068271398544312,
                0.6209945678710938,
                -0.5932154655456543
            ],
            "type" : "VEC3"
        },
        {
            "bufferView" : 5,
            "componentType" : 5126,
            "count" : 750,
            "type" : "VEC3"
        },
        {
            "bufferView" : 6,
            "componentType" : 5126,
            "count" : 750,
            "type" : "VEC2"
        },
        {
            "bufferView" : 7,
            "componentType" : 5123,
            "count" : 1284,
            "type" : "SCALAR"
        }
    ],
    "bufferViews" : [
        {
            "buffer" : 0,
            "byteLength" : 4775028,
            "byteOffset" : 0
        },
        {
            "buffer" : 0,
            "byteLength" : 4775028,
            "byteOffset" : 4775028
        },
        {
            "buffer" : 0,
            "byteLength" : 3183352,
            "byteOffset" : 9550056
        },
        {
            "buffer" : 0,
            "byteLength" : 2388960,
            "byteOffset" : 12733408
        },
        {
            "buffer" : 0,
            "byteLength" : 9000,
            "byteOffset" : 15122368
        },
        {
            "buffer" : 0,
            "byteLength" : 9000,
            "byteOffset" : 15131368
        },
        {
            "buffer" : 0,
            "byteLength" : 6000,
            "byteOffset" : 15140368
        },
        {
            "buffer" : 0,
            "byteLength" : 2568,
            "byteOffset" : 15146368
        }
    ],
    "buffers" : [
        {
            "byteLength" : 15148936,
            "uri" : "COCINA3_G.bin"
        }
    ]
}
