{
    "asset" : {
        "generator" : "Khronos glTF Blender I/O v1.7.33",
        "version" : "2.0"
    },
    "scene" : 0,
    "scenes" : [
        {
            "name" : "Scene",
            "nodes" : [
                0
            ]
        }
    ],
    "nodes" : [
        {
            "mesh" : 0,
            "name" : "Cylinder.004",
            "rotation" : [
                0,
                0,
                0.7070505023002625,
                0.7071630358695984
            ],
            "scale" : [
                -0.02435660921037197,
                -0.0333118811249733,
                -0.02435660921037197
            ],
            "translation" : [
                -1.0069339275360107,
                1.9494880437850952,
                -2.5222527980804443
            ]
        }
    ],
    "materials" : [
        {
            "doubleSided" : true,
            "name" : "Material.001",
            "pbrMetallicRoughness" : {
                "baseColorFactor" : [
                    0.029556840658187866,
                    0.10702312737703323,
                    0.026241229847073555,
                    1
                ],
                "metallicFactor" : 0,
                "roughnessFactor" : 0.5
            }
        },
        {
            "doubleSided" : true,
            "name" : "Material.003",
            "pbrMetallicRoughness" : {
                "baseColorFactor" : [
                    1,
                    1,
                    1,
                    1
                ],
                "metallicFactor" : 0,
                "roughnessFactor" : 0.4000000059604645
            }
        },
        {
            "doubleSided" : true,
            "name" : "Material.006",
            "pbrMetallicRoughness" : {
                "baseColorFactor" : [
                    0.02909955009818077,
                    0.02909955009818077,
                    0.02909955009818077,
                    1
                ],
                "metallicFactor" : 0,
                "roughnessFactor" : 0.5
            }
        },
        {
            "doubleSided" : true,
            "name" : "Material.008",
            "pbrMetallicRoughness" : {
                "metallicFactor" : 0,
                "roughnessFactor" : 0.5
            }
        },
        {
            "doubleSided" : true,
            "name" : "Material.004",
            "pbrMetallicRoughness" : {
                "baseColorFactor" : [
                    0.010021816939115524,
                    0.010021816939115524,
                    0.010021816939115524,
                    1
                ],
                "metallicFactor" : 0,
                "roughnessFactor" : 0.5
            }
        },
        {
            "doubleSided" : true,
            "name" : "Material.007",
            "pbrMetallicRoughness" : {
                "baseColorFactor" : [
                    0.18446944653987885,
                    0.18446944653987885,
                    0.18446944653987885,
                    1
                ],
                "metallicFactor" : 0,
                "roughnessFactor" : 0.5
            }
        }
    ],
    "meshes" : [
        {
            "name" : "Cylinder.009",
            "primitives" : [
                {
                    "attributes" : {
                        "POSITION" : 0,
                        "NORMAL" : 1,
                        "TEXCOORD_0" : 2
                    },
                    "indices" : 3,
                    "material" : 0
                },
                {
                    "attributes" : {
                        "POSITION" : 4,
                        "NORMAL" : 5,
                        "TEXCOORD_0" : 6
                    },
                    "indices" : 7,
                    "material" : 1
                },
                {
                    "attributes" : {
                        "POSITION" : 8,
                        "NORMAL" : 9,
                        "TEXCOORD_0" : 10
                    },
                    "indices" : 11,
                    "material" : 2
                },
                {
                    "attributes" : {
                        "POSITION" : 12,
                        "NORMAL" : 13,
                        "TEXCOORD_0" : 14
                    },
                    "indices" : 15,
                    "material" : 3
                },
                {
                    "attributes" : {
                        "POSITION" : 16,
                        "NORMAL" : 17,
                        "TEXCOORD_0" : 18
                    },
                    "indices" : 19,
                    "material" : 4
                },
                {
                    "attributes" : {
                        "POSITION" : 20,
                        "NORMAL" : 21,
                        "TEXCOORD_0" : 22
                    },
                    "indices" : 23,
                    "material" : 5
                }
            ]
        }
    ],
    "accessors" : [
        {
            "bufferView" : 0,
            "componentType" : 5126,
            "count" : 72,
            "max" : [
                59.5333137512207,
                42.59967803955078,
                112.54606628417969
            ],
            "min" : [
                -21.17291259765625,
                0.2056903839111328,
                56.27773666381836
            ],
            "type" : "VEC3"
        },
        {
            "bufferView" : 1,
            "componentType" : 5126,
            "count" : 72,
            "type" : "VEC3"
        },
        {
            "bufferView" : 2,
            "componentType" : 5126,
            "count" : 72,
            "type" : "VEC2"
        },
        {
            "bufferView" : 3,
            "componentType" : 5123,
            "count" : 132,
            "type" : "SCALAR"
        },
        {
            "bufferView" : 4,
            "componentType" : 5126,
            "count" : 258,
            "max" : [
                -21.26329803466797,
                42.66230010986328,
                112.84345245361328
            ],
            "min" : [
                -24.748577117919922,
                -0.3275890350341797,
                55.638431549072266
            ],
            "type" : "VEC3"
        },
        {
            "bufferView" : 5,
            "componentType" : 5126,
            "count" : 258,
            "type" : "VEC3"
        },
        {
            "bufferView" : 6,
            "componentType" : 5126,
            "count" : 258,
            "type" : "VEC2"
        },
        {
            "bufferView" : 7,
            "componentType" : 5123,
            "count" : 432,
            "type" : "SCALAR"
        },
        {
            "bufferView" : 8,
            "componentType" : 5126,
            "count" : 52,
            "max" : [
                22.924623489379883,
                0.039034247398376465,
                104.53282928466797
            ],
            "min" : [
                -22.73502540588379,
                -1.5546627044677734,
                59.261329650878906
            ],
            "type" : "VEC3"
        },
        {
            "bufferView" : 9,
            "componentType" : 5126,
            "count" : 52,
            "type" : "VEC3"
        },
        {
            "bufferView" : 10,
            "componentType" : 5126,
            "count" : 52,
            "type" : "VEC2"
        },
        {
            "bufferView" : 11,
            "componentType" : 5123,
            "count" : 84,
            "type" : "SCALAR"
        },
        {
            "bufferView" : 12,
            "componentType" : 5126,
            "count" : 52,
            "max" : [
                -23.046262741088867,
                29.942623138427734,
                104.53282928466797
            ],
            "min" : [
                -23.99713134765625,
                -2.017878293991089,
                59.261329650878906
            ],
            "type" : "VEC3"
        },
        {
            "bufferView" : 13,
            "componentType" : 5126,
            "count" : 52,
            "type" : "VEC3"
        },
        {
            "bufferView" : 14,
            "componentType" : 5126,
            "count" : 52,
            "type" : "VEC2"
        },
        {
            "bufferView" : 15,
            "componentType" : 5123,
            "count" : 84,
            "type" : "SCALAR"
        },
        {
            "bufferView" : 16,
            "componentType" : 5126,
            "count" : 4872,
            "max" : [
                21.930042266845703,
                27.87528419494629,
                104.53282928466797
            ],
            "min" : [
                -26.076744079589844,
                -2.1171340942382812,
                59.261329650878906
            ],
            "type" : "VEC3"
        },
        {
            "bufferView" : 17,
            "componentType" : 5126,
            "count" : 4872,
            "type" : "VEC3"
        },
        {
            "bufferView" : 18,
            "componentType" : 5126,
            "count" : 4872,
            "type" : "VEC2"
        },
        {
            "bufferView" : 19,
            "componentType" : 5123,
            "count" : 9540,
            "type" : "SCALAR"
        },
        {
            "bufferView" : 20,
            "componentType" : 5126,
            "count" : 1244,
            "max" : [
                -11.399955749511719,
                -1.7955890893936157,
                101.13641357421875
            ],
            "min" : [
                -20.728496551513672,
                -4.976457118988037,
                62.8258056640625
            ],
            "type" : "VEC3"
        },
        {
            "bufferView" : 21,
            "componentType" : 5126,
            "count" : 1244,
            "type" : "VEC3"
        },
        {
            "bufferView" : 22,
            "componentType" : 5126,
            "count" : 1244,
            "type" : "VEC2"
        },
        {
            "bufferView" : 23,
            "componentType" : 5123,
            "count" : 2304,
            "type" : "SCALAR"
        }
    ],
    "bufferViews" : [
        {
            "buffer" : 0,
            "byteLength" : 864,
            "byteOffset" : 0
        },
        {
            "buffer" : 0,
            "byteLength" : 864,
            "byteOffset" : 864
        },
        {
            "buffer" : 0,
            "byteLength" : 576,
            "byteOffset" : 1728
        },
        {
            "buffer" : 0,
            "byteLength" : 264,
            "byteOffset" : 2304
        },
        {
            "buffer" : 0,
            "byteLength" : 3096,
            "byteOffset" : 2568
        },
        {
            "buffer" : 0,
            "byteLength" : 3096,
            "byteOffset" : 5664
        },
        {
            "buffer" : 0,
            "byteLength" : 2064,
            "byteOffset" : 8760
        },
        {
            "buffer" : 0,
            "byteLength" : 864,
            "byteOffset" : 10824
        },
        {
            "buffer" : 0,
            "byteLength" : 624,
            "byteOffset" : 11688
        },
        {
            "buffer" : 0,
            "byteLength" : 624,
            "byteOffset" : 12312
        },
        {
            "buffer" : 0,
            "byteLength" : 416,
            "byteOffset" : 12936
        },
        {
            "buffer" : 0,
            "byteLength" : 168,
            "byteOffset" : 13352
        },
        {
            "buffer" : 0,
            "byteLength" : 624,
            "byteOffset" : 13520
        },
        {
            "buffer" : 0,
            "byteLength" : 624,
            "byteOffset" : 14144
        },
        {
            "buffer" : 0,
            "byteLength" : 416,
            "byteOffset" : 14768
        },
        {
            "buffer" : 0,
            "byteLength" : 168,
            "byteOffset" : 15184
        },
        {
            "buffer" : 0,
            "byteLength" : 58464,
            "byteOffset" : 15352
        },
        {
            "buffer" : 0,
            "byteLength" : 58464,
            "byteOffset" : 73816
        },
        {
            "buffer" : 0,
            "byteLength" : 38976,
            "byteOffset" : 132280
        },
        {
            "buffer" : 0,
            "byteLength" : 19080,
            "byteOffset" : 171256
        },
        {
            "buffer" : 0,
            "byteLength" : 14928,
            "byteOffset" : 190336
        },
        {
            "buffer" : 0,
            "byteLength" : 14928,
            "byteOffset" : 205264
        },
        {
            "buffer" : 0,
            "byteLength" : 9952,
            "byteOffset" : 220192
        },
        {
            "buffer" : 0,
            "byteLength" : 4608,
            "byteOffset" : 230144
        }
    ],
    "buffers" : [
        {
            "byteLength" : 234752,
            "uri" : "COCINA4_V.bin"
        }
    ]
}
