{
    "asset" : {
        "generator" : "Khronos glTF Blender I/O v1.7.33",
        "version" : "2.0"
    },
    "scene" : 0,
    "scenes" : [
        {
            "name" : "Scene",
            "nodes" : [
                0
            ]
        }
    ],
    "nodes" : [
        {
            "mesh" : 0,
            "name" : "Cube.001",
            "translation" : [
                0,
                3.4673898220062256,
                -2.988691806793213
            ]
        }
    ],
    "materials" : [
        {
            "doubleSided" : true,
            "name" : "Material.003",
            "pbrMetallicRoughness" : {
                "baseColorFactor" : [
                    1,
                    1,
                    1,
                    1
                ],
                "metallicFactor" : 0,
                "roughnessFactor" : 0.4000000059604645
            }
        },
        {
            "doubleSided" : true,
            "name" : "Material.006",
            "pbrMetallicRoughness" : {
                "baseColorFactor" : [
                    0.02909955009818077,
                    0.02909955009818077,
                    0.02909955009818077,
                    1
                ],
                "metallicFactor" : 0,
                "roughnessFactor" : 0.5
            }
        },
        {
            "doubleSided" : true,
            "name" : "Material.008",
            "pbrMetallicRoughness" : {
                "metallicFactor" : 0,
                "roughnessFactor" : 0.5
            }
        },
        {
            "doubleSided" : true,
            "name" : "Material.004",
            "pbrMetallicRoughness" : {
                "baseColorFactor" : [
                    0.010021816939115524,
                    0.010021816939115524,
                    0.010021816939115524,
                    1
                ],
                "metallicFactor" : 0,
                "roughnessFactor" : 0.5
            }
        },
        {
            "doubleSided" : true,
            "name" : "Material.007",
            "pbrMetallicRoughness" : {
                "baseColorFactor" : [
                    0.18446944653987885,
                    0.18446944653987885,
                    0.18446944653987885,
                    1
                ],
                "metallicFactor" : 0,
                "roughnessFactor" : 0.5
            }
        },
        {
            "doubleSided" : true,
            "name" : "Material.001",
            "pbrMetallicRoughness" : {
                "baseColorFactor" : [
                    0.43965694308280945,
                    0.2422809898853302,
                    0.1169707179069519,
                    1
                ],
                "metallicFactor" : 0,
                "roughnessFactor" : 0.5
            }
        },
        {
            "doubleSided" : true,
            "name" : "Material.002",
            "pbrMetallicRoughness" : {
                "baseColorFactor" : [
                    0.43965694308280945,
                    0.2422809898853302,
                    0.1169707179069519,
                    1
                ],
                "metallicFactor" : 0,
                "roughnessFactor" : 0.5
            }
        },
        {
            "doubleSided" : true,
            "name" : "Material.010",
            "pbrMetallicRoughness" : {
                "baseColorFactor" : [
                    0.43965694308280945,
                    0.2422809898853302,
                    0.1169707179069519,
                    1
                ],
                "metallicFactor" : 0,
                "roughnessFactor" : 0.5
            }
        },
        {
            "doubleSided" : true,
            "name" : "Material.009",
            "pbrMetallicRoughness" : {
                "baseColorFactor" : [
                    0.43965694308280945,
                    0.2422809898853302,
                    0.1169707179069519,
                    1
                ],
                "metallicFactor" : 0,
                "roughnessFactor" : 0.5
            }
        }
    ],
    "meshes" : [
        {
            "name" : "Cube.005",
            "primitives" : [
                {
                    "attributes" : {
                        "POSITION" : 0,
                        "NORMAL" : 1,
                        "TEXCOORD_0" : 2
                    },
                    "indices" : 3,
                    "material" : 0
                },
                {
                    "attributes" : {
                        "POSITION" : 4,
                        "NORMAL" : 5,
                        "TEXCOORD_0" : 6
                    },
                    "indices" : 7,
                    "material" : 1
                },
                {
                    "attributes" : {
                        "POSITION" : 8,
                        "NORMAL" : 9,
                        "TEXCOORD_0" : 10
                    },
                    "indices" : 11,
                    "material" : 2
                },
                {
                    "attributes" : {
                        "POSITION" : 12,
                        "NORMAL" : 13,
                        "TEXCOORD_0" : 14
                    },
                    "indices" : 15,
                    "material" : 3
                },
                {
                    "attributes" : {
                        "POSITION" : 16,
                        "NORMAL" : 17,
                        "TEXCOORD_0" : 18
                    },
                    "indices" : 19,
                    "material" : 4
                },
                {
                    "attributes" : {
                        "POSITION" : 20,
                        "NORMAL" : 21,
                        "TEXCOORD_0" : 22
                    },
                    "indices" : 23,
                    "material" : 5
                },
                {
                    "attributes" : {
                        "POSITION" : 24,
                        "NORMAL" : 25,
                        "TEXCOORD_0" : 26
                    },
                    "indices" : 27,
                    "material" : 6
                },
                {
                    "attributes" : {
                        "POSITION" : 28,
                        "NORMAL" : 29,
                        "TEXCOORD_0" : 30
                    },
                    "indices" : 31,
                    "material" : 7
                },
                {
                    "attributes" : {
                        "POSITION" : 32,
                        "NORMAL" : 33,
                        "TEXCOORD_0" : 34
                    },
                    "indices" : 31,
                    "material" : 8
                }
            ]
        }
    ],
    "accessors" : [
        {
            "bufferView" : 0,
            "componentType" : 5126,
            "count" : 907,
            "max" : [
                0.41430985927581787,
                -0.8793420791625977,
                3.448425054550171
            ],
            "min" : [
                -1.1068271398544312,
                -1.346937894821167,
                -2.2820451259613037
            ],
            "type" : "VEC3"
        },
        {
            "bufferView" : 1,
            "componentType" : 5126,
            "count" : 907,
            "type" : "VEC3"
        },
        {
            "bufferView" : 2,
            "componentType" : 5126,
            "count" : 907,
            "type" : "VEC2"
        },
        {
            "bufferView" : 3,
            "componentType" : 5123,
            "count" : 1560,
            "type" : "SCALAR"
        },
        {
            "bufferView" : 4,
            "componentType" : 5126,
            "count" : 66,
            "max" : [
                -1.0057225227355957,
                -0.9641536474227905,
                -0.976966381072998
            ],
            "min" : [
                -1.0586352348327637,
                -2.0762596130371094,
                -2.0796265602111816
            ],
            "type" : "VEC3"
        },
        {
            "bufferView" : 5,
            "componentType" : 5126,
            "count" : 66,
            "type" : "VEC3"
        },
        {
            "bufferView" : 6,
            "componentType" : 5126,
            "count" : 66,
            "type" : "VEC2"
        },
        {
            "bufferView" : 7,
            "componentType" : 5123,
            "count" : 108,
            "type" : "SCALAR"
        },
        {
            "bufferView" : 8,
            "componentType" : 5126,
            "count" : 52,
            "max" : [
                -0.00939953327178955,
                -0.9335715174674988,
                -0.976966381072998
            ],
            "min" : [
                -1.0740619897842407,
                -0.9565621018409729,
                -2.0796265602111816
            ],
            "type" : "VEC3"
        },
        {
            "bufferView" : 9,
            "componentType" : 5126,
            "count" : 52,
            "type" : "VEC3"
        },
        {
            "bufferView" : 10,
            "componentType" : 5126,
            "count" : 52,
            "type" : "VEC2"
        },
        {
            "bufferView" : 11,
            "componentType" : 5123,
            "count" : 84,
            "type" : "SCALAR"
        },
        {
            "bufferView" : 12,
            "componentType" : 5126,
            "count" : 4070,
            "max" : [
                -0.07825694978237152,
                -0.8829082250595093,
                -0.976966381072998
            ],
            "min" : [
                -1.0774059295654297,
                -2.0520317554473877,
                -2.0796265602111816
            ],
            "type" : "VEC3"
        },
        {
            "bufferView" : 13,
            "componentType" : 5126,
            "count" : 4070,
            "type" : "VEC3"
        },
        {
            "bufferView" : 14,
            "componentType" : 5126,
            "count" : 4070,
            "type" : "VEC2"
        },
        {
            "bufferView" : 15,
            "componentType" : 5123,
            "count" : 9540,
            "type" : "SCALAR"
        },
        {
            "bufferView" : 16,
            "componentType" : 5126,
            "count" : 1180,
            "max" : [
                -1.066668152809143,
                -1.0130118131637573,
                -1.0637848377227783
            ],
            "min" : [
                -1.172659158706665,
                -1.240211009979248,
                -1.996901273727417
            ],
            "type" : "VEC3"
        },
        {
            "bufferView" : 17,
            "componentType" : 5126,
            "count" : 1180,
            "type" : "VEC3"
        },
        {
            "bufferView" : 18,
            "componentType" : 5126,
            "count" : 1180,
            "type" : "VEC2"
        },
        {
            "bufferView" : 19,
            "componentType" : 5123,
            "count" : 2304,
            "type" : "SCALAR"
        },
        {
            "bufferView" : 20,
            "componentType" : 5126,
            "count" : 397969,
            "max" : [
                0.4119107723236084,
                0.2622041702270508,
                0.7843842506408691
            ],
            "min" : [
                -1.094699501991272,
                -2.9679324626922607,
                -2.274801731109619
            ],
            "type" : "VEC3"
        },
        {
            "bufferView" : 21,
            "componentType" : 5126,
            "count" : 397969,
            "type" : "VEC3"
        },
        {
            "bufferView" : 22,
            "componentType" : 5126,
            "count" : 397969,
            "type" : "VEC2"
        },
        {
            "bufferView" : 23,
            "componentType" : 5125,
            "count" : 597288,
            "type" : "SCALAR"
        },
        {
            "bufferView" : 24,
            "componentType" : 5126,
            "count" : 616,
            "max" : [
                0.4119107723236084,
                -1.0024269819259644,
                3.404350757598877
            ],
            "min" : [
                -1.0347994565963745,
                -2.9679324626922607,
                2.7048611640930176
            ],
            "type" : "VEC3"
        },
        {
            "bufferView" : 25,
            "componentType" : 5126,
            "count" : 616,
            "type" : "VEC3"
        },
        {
            "bufferView" : 26,
            "componentType" : 5126,
            "count" : 616,
            "type" : "VEC2"
        },
        {
            "bufferView" : 27,
            "componentType" : 5123,
            "count" : 1386,
            "type" : "SCALAR"
        },
        {
            "bufferView" : 28,
            "componentType" : 5126,
            "count" : 192,
            "max" : [
                -1.037489652633667,
                -1.4935312271118164,
                2.822859764099121
            ],
            "min" : [
                -1.094699501991272,
                -1.5422534942626953,
                2.774146556854248
            ],
            "type" : "VEC3"
        },
        {
            "bufferView" : 29,
            "componentType" : 5126,
            "count" : 192,
            "type" : "VEC3"
        },
        {
            "bufferView" : 30,
            "componentType" : 5126,
            "count" : 192,
            "type" : "VEC2"
        },
        {
            "bufferView" : 31,
            "componentType" : 5123,
            "count" : 372,
            "type" : "SCALAR"
        },
        {
            "bufferView" : 32,
            "componentType" : 5126,
            "count" : 192,
            "max" : [
                -1.0078145265579224,
                -1.1810916662216187,
                3.0710954666137695
            ],
            "min" : [
                -1.0650243759155273,
                -1.229814052581787,
                3.0223822593688965
            ],
            "type" : "VEC3"
        },
        {
            "bufferView" : 33,
            "componentType" : 5126,
            "count" : 192,
            "type" : "VEC3"
        },
        {
            "bufferView" : 34,
            "componentType" : 5126,
            "count" : 192,
            "type" : "VEC2"
        }
    ],
    "bufferViews" : [
        {
            "buffer" : 0,
            "byteLength" : 10884,
            "byteOffset" : 0
        },
        {
            "buffer" : 0,
            "byteLength" : 10884,
            "byteOffset" : 10884
        },
        {
            "buffer" : 0,
            "byteLength" : 7256,
            "byteOffset" : 21768
        },
        {
            "buffer" : 0,
            "byteLength" : 3120,
            "byteOffset" : 29024
        },
        {
            "buffer" : 0,
            "byteLength" : 792,
            "byteOffset" : 32144
        },
        {
            "buffer" : 0,
            "byteLength" : 792,
            "byteOffset" : 32936
        },
        {
            "buffer" : 0,
            "byteLength" : 528,
            "byteOffset" : 33728
        },
        {
            "buffer" : 0,
            "byteLength" : 216,
            "byteOffset" : 34256
        },
        {
            "buffer" : 0,
            "byteLength" : 624,
            "byteOffset" : 34472
        },
        {
            "buffer" : 0,
            "byteLength" : 624,
            "byteOffset" : 35096
        },
        {
            "buffer" : 0,
            "byteLength" : 416,
            "byteOffset" : 35720
        },
        {
            "buffer" : 0,
            "byteLength" : 168,
            "byteOffset" : 36136
        },
        {
            "buffer" : 0,
            "byteLength" : 48840,
            "byteOffset" : 36304
        },
        {
            "buffer" : 0,
            "byteLength" : 48840,
            "byteOffset" : 85144
        },
        {
            "buffer" : 0,
            "byteLength" : 32560,
            "byteOffset" : 133984
        },
        {
            "buffer" : 0,
            "byteLength" : 19080,
            "byteOffset" : 166544
        },
        {
            "buffer" : 0,
            "byteLength" : 14160,
            "byteOffset" : 185624
        },
        {
            "buffer" : 0,
            "byteLength" : 14160,
            "byteOffset" : 199784
        },
        {
            "buffer" : 0,
            "byteLength" : 9440,
            "byteOffset" : 213944
        },
        {
            "buffer" : 0,
            "byteLength" : 4608,
            "byteOffset" : 223384
        },
        {
            "buffer" : 0,
            "byteLength" : 4775628,
            "byteOffset" : 227992
        },
        {
            "buffer" : 0,
            "byteLength" : 4775628,
            "byteOffset" : 5003620
        },
        {
            "buffer" : 0,
            "byteLength" : 3183752,
            "byteOffset" : 9779248
        },
        {
            "buffer" : 0,
            "byteLength" : 2389152,
            "byteOffset" : 12963000
        },
        {
            "buffer" : 0,
            "byteLength" : 7392,
            "byteOffset" : 15352152
        },
        {
            "buffer" : 0,
            "byteLength" : 7392,
            "byteOffset" : 15359544
        },
        {
            "buffer" : 0,
            "byteLength" : 4928,
            "byteOffset" : 15366936
        },
        {
            "buffer" : 0,
            "byteLength" : 2772,
            "byteOffset" : 15371864
        },
        {
            "buffer" : 0,
            "byteLength" : 2304,
            "byteOffset" : 15374636
        },
        {
            "buffer" : 0,
            "byteLength" : 2304,
            "byteOffset" : 15376940
        },
        {
            "buffer" : 0,
            "byteLength" : 1536,
            "byteOffset" : 15379244
        },
        {
            "buffer" : 0,
            "byteLength" : 744,
            "byteOffset" : 15380780
        },
        {
            "buffer" : 0,
            "byteLength" : 2304,
            "byteOffset" : 15381524
        },
        {
            "buffer" : 0,
            "byteLength" : 2304,
            "byteOffset" : 15383828
        },
        {
            "buffer" : 0,
            "byteLength" : 1536,
            "byteOffset" : 15386132
        }
    ],
    "buffers" : [
        {
            "byteLength" : 15387668,
            "uri" : "COCINA1_M.bin"
        }
    ]
}
