{
    "asset" : {
        "generator" : "Khronos glTF Blender I/O v1.7.33",
        "version" : "2.0"
    },
    "scene" : 0,
    "scenes" : [
        {
            "name" : "Scene",
            "nodes" : [
                0
            ]
        }
    ],
    "nodes" : [
        {
            "mesh" : 0,
            "name" : "Cube.002",
            "translation" : [
                0,
                1.4994573593139648,
                -3.3673462867736816
            ]
        }
    ],
    "materials" : [
        {
            "doubleSided" : true,
            "name" : "Material.001",
            "pbrMetallicRoughness" : {
                "baseColorFactor" : [
                    0.029556840658187866,
                    0.10702312737703323,
                    0.026241229847073555,
                    1
                ],
                "metallicFactor" : 0,
                "roughnessFactor" : 0.5
            }
        },
        {
            "doubleSided" : true,
            "name" : "Material.003",
            "pbrMetallicRoughness" : {
                "baseColorFactor" : [
                    1,
                    1,
                    1,
                    1
                ],
                "metallicFactor" : 0,
                "roughnessFactor" : 0.4000000059604645
            }
        },
        {
            "doubleSided" : true,
            "name" : "Material.006",
            "pbrMetallicRoughness" : {
                "baseColorFactor" : [
                    0.02909955009818077,
                    0.02909955009818077,
                    0.02909955009818077,
                    1
                ],
                "metallicFactor" : 0,
                "roughnessFactor" : 0.5
            }
        },
        {
            "doubleSided" : true,
            "name" : "Material.008",
            "pbrMetallicRoughness" : {
                "metallicFactor" : 0,
                "roughnessFactor" : 0.5
            }
        },
        {
            "doubleSided" : true,
            "name" : "Material.004",
            "pbrMetallicRoughness" : {
                "baseColorFactor" : [
                    0.010021816939115524,
                    0.010021816939115524,
                    0.010021816939115524,
                    1
                ],
                "metallicFactor" : 0,
                "roughnessFactor" : 0.5
            }
        },
        {
            "doubleSided" : true,
            "name" : "Material.007",
            "pbrMetallicRoughness" : {
                "baseColorFactor" : [
                    0.18446944653987885,
                    0.18446944653987885,
                    0.18446944653987885,
                    1
                ],
                "metallicFactor" : 0,
                "roughnessFactor" : 0.5
            }
        }
    ],
    "meshes" : [
        {
            "name" : "Cube.001",
            "primitives" : [
                {
                    "attributes" : {
                        "POSITION" : 0,
                        "NORMAL" : 1,
                        "TEXCOORD_0" : 2
                    },
                    "indices" : 3,
                    "material" : 0
                },
                {
                    "attributes" : {
                        "POSITION" : 4,
                        "NORMAL" : 5,
                        "TEXCOORD_0" : 6
                    },
                    "indices" : 7,
                    "material" : 1
                },
                {
                    "attributes" : {
                        "POSITION" : 8,
                        "NORMAL" : 9,
                        "TEXCOORD_0" : 10
                    },
                    "indices" : 11,
                    "material" : 2
                },
                {
                    "attributes" : {
                        "POSITION" : 12,
                        "NORMAL" : 13,
                        "TEXCOORD_0" : 14
                    },
                    "indices" : 15,
                    "material" : 3
                },
                {
                    "attributes" : {
                        "POSITION" : 16,
                        "NORMAL" : 17,
                        "TEXCOORD_0" : 18
                    },
                    "indices" : 19,
                    "material" : 4
                },
                {
                    "attributes" : {
                        "POSITION" : 20,
                        "NORMAL" : 21,
                        "TEXCOORD_0" : 22
                    },
                    "indices" : 23,
                    "material" : 5
                }
            ]
        }
    ],
    "accessors" : [
        {
            "bufferView" : 0,
            "componentType" : 5126,
            "count" : 397923,
            "max" : [
                0.4119107723236084,
                2.2301366329193115,
                1.163038730621338
            ],
            "min" : [
                -1.094699501991272,
                -1,
                -1.89614737033844
            ],
            "type" : "VEC3"
        },
        {
            "bufferView" : 1,
            "componentType" : 5126,
            "count" : 397923,
            "type" : "VEC3"
        },
        {
            "bufferView" : 2,
            "componentType" : 5126,
            "count" : 397923,
            "type" : "VEC2"
        },
        {
            "bufferView" : 3,
            "componentType" : 5125,
            "count" : 597240,
            "type" : "SCALAR"
        },
        {
            "bufferView" : 4,
            "componentType" : 5126,
            "count" : 906,
            "max" : [
                0.41430985927581787,
                1.088590383529663,
                1.1801154613494873
            ],
            "min" : [
                -1.1068271398544312,
                0.6209945678710938,
                -1.903390645980835
            ],
            "type" : "VEC3"
        },
        {
            "bufferView" : 5,
            "componentType" : 5126,
            "count" : 906,
            "type" : "VEC3"
        },
        {
            "bufferView" : 6,
            "componentType" : 5126,
            "count" : 906,
            "type" : "VEC2"
        },
        {
            "bufferView" : 7,
            "componentType" : 5123,
            "count" : 1560,
            "type" : "SCALAR"
        },
        {
            "bufferView" : 8,
            "componentType" : 5126,
            "count" : 24,
            "max" : [
                -1.0057225227355957,
                1.0037788152694702,
                -0.5983119010925293
            ],
            "min" : [
                -1.0586352348327637,
                -0.10832703113555908,
                -1.700972080230713
            ],
            "type" : "VEC3"
        },
        {
            "bufferView" : 9,
            "componentType" : 5126,
            "count" : 24,
            "type" : "VEC3"
        },
        {
            "bufferView" : 10,
            "componentType" : 5126,
            "count" : 24,
            "type" : "VEC2"
        },
        {
            "bufferView" : 11,
            "componentType" : 5123,
            "count" : 36,
            "type" : "SCALAR"
        },
        {
            "bufferView" : 12,
            "componentType" : 5126,
            "count" : 24,
            "max" : [
                -0.00939953327178955,
                1.0343610048294067,
                -0.5983119010925293
            ],
            "min" : [
                -1.0740619897842407,
                1.0113704204559326,
                -1.700972080230713
            ],
            "type" : "VEC3"
        },
        {
            "bufferView" : 13,
            "componentType" : 5126,
            "count" : 24,
            "type" : "VEC3"
        },
        {
            "bufferView" : 14,
            "componentType" : 5126,
            "count" : 24,
            "type" : "VEC2"
        },
        {
            "bufferView" : 15,
            "componentType" : 5123,
            "count" : 36,
            "type" : "SCALAR"
        },
        {
            "bufferView" : 16,
            "componentType" : 5126,
            "count" : 4082,
            "max" : [
                -0.07825694978237152,
                1.0850242376327515,
                -0.5983119010925293
            ],
            "min" : [
                -1.0774059295654297,
                -0.08409939706325531,
                -1.700972080230713
            ],
            "type" : "VEC3"
        },
        {
            "bufferView" : 17,
            "componentType" : 5126,
            "count" : 4082,
            "type" : "VEC3"
        },
        {
            "bufferView" : 18,
            "componentType" : 5126,
            "count" : 4082,
            "type" : "VEC2"
        },
        {
            "bufferView" : 19,
            "componentType" : 5123,
            "count" : 9492,
            "type" : "SCALAR"
        },
        {
            "bufferView" : 20,
            "componentType" : 5126,
            "count" : 1180,
            "max" : [
                -1.066668152809143,
                0.9549207091331482,
                -0.6851303577423096
            ],
            "min" : [
                -1.172659158706665,
                0.7277214527130127,
                -1.6182467937469482
            ],
            "type" : "VEC3"
        },
        {
            "bufferView" : 21,
            "componentType" : 5126,
            "count" : 1180,
            "type" : "VEC3"
        },
        {
            "bufferView" : 22,
            "componentType" : 5126,
            "count" : 1180,
            "type" : "VEC2"
        },
        {
            "bufferView" : 23,
            "componentType" : 5123,
            "count" : 2304,
            "type" : "SCALAR"
        }
    ],
    "bufferViews" : [
        {
            "buffer" : 0,
            "byteLength" : 4775076,
            "byteOffset" : 0
        },
        {
            "buffer" : 0,
            "byteLength" : 4775076,
            "byteOffset" : 4775076
        },
        {
            "buffer" : 0,
            "byteLength" : 3183384,
            "byteOffset" : 9550152
        },
        {
            "buffer" : 0,
            "byteLength" : 2388960,
            "byteOffset" : 12733536
        },
        {
            "buffer" : 0,
            "byteLength" : 10872,
            "byteOffset" : 15122496
        },
        {
            "buffer" : 0,
            "byteLength" : 10872,
            "byteOffset" : 15133368
        },
        {
            "buffer" : 0,
            "byteLength" : 7248,
            "byteOffset" : 15144240
        },
        {
            "buffer" : 0,
            "byteLength" : 3120,
            "byteOffset" : 15151488
        },
        {
            "buffer" : 0,
            "byteLength" : 288,
            "byteOffset" : 15154608
        },
        {
            "buffer" : 0,
            "byteLength" : 288,
            "byteOffset" : 15154896
        },
        {
            "buffer" : 0,
            "byteLength" : 192,
            "byteOffset" : 15155184
        },
        {
            "buffer" : 0,
            "byteLength" : 72,
            "byteOffset" : 15155376
        },
        {
            "buffer" : 0,
            "byteLength" : 288,
            "byteOffset" : 15155448
        },
        {
            "buffer" : 0,
            "byteLength" : 288,
            "byteOffset" : 15155736
        },
        {
            "buffer" : 0,
            "byteLength" : 192,
            "byteOffset" : 15156024
        },
        {
            "buffer" : 0,
            "byteLength" : 72,
            "byteOffset" : 15156216
        },
        {
            "buffer" : 0,
            "byteLength" : 48984,
            "byteOffset" : 15156288
        },
        {
            "buffer" : 0,
            "byteLength" : 48984,
            "byteOffset" : 15205272
        },
        {
            "buffer" : 0,
            "byteLength" : 32656,
            "byteOffset" : 15254256
        },
        {
            "buffer" : 0,
            "byteLength" : 18984,
            "byteOffset" : 15286912
        },
        {
            "buffer" : 0,
            "byteLength" : 14160,
            "byteOffset" : 15305896
        },
        {
            "buffer" : 0,
            "byteLength" : 14160,
            "byteOffset" : 15320056
        },
        {
            "buffer" : 0,
            "byteLength" : 9440,
            "byteOffset" : 15334216
        },
        {
            "buffer" : 0,
            "byteLength" : 4608,
            "byteOffset" : 15343656
        }
    ],
    "buffers" : [
        {
            "byteLength" : 15348264,
            "uri" : "COCINA2_V.bin"
        }
    ]
}
