{
    "asset" : {
        "generator" : "Khronos glTF Blender I/O v1.7.33",
        "version" : "2.0"
    },
    "scene" : 0,
    "scenes" : [
        {
            "name" : "Scene",
            "nodes" : [
                0
            ]
        }
    ],
    "nodes" : [
        {
            "mesh" : 0,
            "name" : "Cube.003",
            "scale" : [
                0.46504223346710205,
                1,
                1
            ],
            "translation" : [
                -0.8942951560020447,
                2.563143730163574,
                -1.0926966667175293
            ]
        }
    ],
    "materials" : [
        {
            "doubleSided" : true,
            "name" : "Material.005",
            "pbrMetallicRoughness" : {
                "baseColorFactor" : [
                    0.7454044818878174,
                    0.6938719153404236,
                    0.6514058113098145,
                    1
                ],
                "metallicFactor" : 0,
                "roughnessFactor" : 0.5
            }
        },
        {
            "doubleSided" : true,
            "name" : "Material",
            "pbrMetallicRoughness" : {
                "baseColorFactor" : [
                    0.029556840658187866,
                    0.10702312737703323,
                    0.026241229847073555,
                    1
                ],
                "metallicFactor" : 0,
                "roughnessFactor" : 0.4000000059604645
            }
        },
        {
            "doubleSided" : true,
            "name" : "Material.001",
            "pbrMetallicRoughness" : {
                "baseColorFactor" : [
                    0.800000011920929,
                    0.800000011920929,
                    0.800000011920929,
                    1
                ],
                "metallicFactor" : 0,
                "roughnessFactor" : 0.5
            }
        }
    ],
    "meshes" : [
        {
            "name" : "Cube.004",
            "primitives" : [
                {
                    "attributes" : {
                        "POSITION" : 0,
                        "NORMAL" : 1,
                        "TEXCOORD_0" : 2
                    },
                    "indices" : 3,
                    "material" : 0
                },
                {
                    "attributes" : {
                        "POSITION" : 4,
                        "NORMAL" : 5,
                        "TEXCOORD_0" : 6
                    },
                    "indices" : 7,
                    "material" : 1
                },
                {
                    "attributes" : {
                        "POSITION" : 8,
                        "NORMAL" : 9,
                        "TEXCOORD_0" : 10
                    },
                    "indices" : 11,
                    "material" : 2
                }
            ]
        }
    ],
    "accessors" : [
        {
            "bufferView" : 0,
            "componentType" : 5126,
            "count" : 2642512,
            "max" : [
                1.6766587495803833,
                -0.94780433177948,
                0.8103517889976501
            ],
            "min" : [
                -1.0657544136047363,
                -1.4113121032714844,
                -2.8020212650299072
            ],
            "type" : "VEC3"
        },
        {
            "bufferView" : 1,
            "componentType" : 5126,
            "count" : 2642512,
            "type" : "VEC3"
        },
        {
            "bufferView" : 2,
            "componentType" : 5126,
            "count" : 2642512,
            "type" : "VEC2"
        },
        {
            "bufferView" : 3,
            "componentType" : 5125,
            "count" : 3993600,
            "type" : "SCALAR"
        },
        {
            "bufferView" : 4,
            "componentType" : 5126,
            "count" : 72,
            "max" : [
                1.746982216835022,
                -1.4368488788604736,
                1
            ],
            "min" : [
                -0.9999999403953552,
                -1.8944844007492065,
                -2.9887900352478027
            ],
            "type" : "VEC3"
        },
        {
            "bufferView" : 5,
            "componentType" : 5126,
            "count" : 72,
            "type" : "VEC3"
        },
        {
            "bufferView" : 6,
            "componentType" : 5126,
            "count" : 72,
            "type" : "VEC2"
        },
        {
            "bufferView" : 7,
            "componentType" : 5123,
            "count" : 108,
            "type" : "SCALAR"
        },
        {
            "bufferView" : 8,
            "componentType" : 5126,
            "count" : 614400,
            "max" : [
                1.7355326414108276,
                -1.003277063369751,
                0.9789464473724365
            ],
            "min" : [
                -0.999540388584137,
                -1.4331037998199463,
                -2.973144054412842
            ],
            "type" : "VEC3"
        },
        {
            "bufferView" : 9,
            "componentType" : 5126,
            "count" : 614400,
            "type" : "VEC3"
        },
        {
            "bufferView" : 10,
            "componentType" : 5126,
            "count" : 614400,
            "type" : "VEC2"
        },
        {
            "bufferView" : 11,
            "componentType" : 5125,
            "count" : 921600,
            "type" : "SCALAR"
        }
    ],
    "bufferViews" : [
        {
            "buffer" : 0,
            "byteLength" : 31710144,
            "byteOffset" : 0
        },
        {
            "buffer" : 0,
            "byteLength" : 31710144,
            "byteOffset" : 31710144
        },
        {
            "buffer" : 0,
            "byteLength" : 21140096,
            "byteOffset" : 63420288
        },
        {
            "buffer" : 0,
            "byteLength" : 15974400,
            "byteOffset" : 84560384
        },
        {
            "buffer" : 0,
            "byteLength" : 864,
            "byteOffset" : 100534784
        },
        {
            "buffer" : 0,
            "byteLength" : 864,
            "byteOffset" : 100535648
        },
        {
            "buffer" : 0,
            "byteLength" : 576,
            "byteOffset" : 100536512
        },
        {
            "buffer" : 0,
            "byteLength" : 216,
            "byteOffset" : 100537088
        },
        {
            "buffer" : 0,
            "byteLength" : 7372800,
            "byteOffset" : 100537304
        },
        {
            "buffer" : 0,
            "byteLength" : 7372800,
            "byteOffset" : 107910104
        },
        {
            "buffer" : 0,
            "byteLength" : 4915200,
            "byteOffset" : 115282904
        },
        {
            "buffer" : 0,
            "byteLength" : 3686400,
            "byteOffset" : 120198104
        }
    ],
    "buffers" : [
        {
            "byteLength" : 123884504,
            "uri" : "SOFA2_V.bin"
        }
    ]
}
