{
    "asset" : {
        "generator" : "Khronos glTF Blender I/O v1.7.33",
        "version" : "2.0"
    },
    "scene" : 0,
    "scenes" : [
        {
            "name" : "Scene",
            "nodes" : [
                0
            ]
        }
    ],
    "nodes" : [
        {
            "mesh" : 0,
            "name" : "Cube",
            "scale" : [
                0.46504220366477966,
                1,
                0.40023815631866455
            ],
            "translation" : [
                -0.8942951560020447,
                1.019858956336975,
                -0.5172321200370789
            ]
        }
    ],
    "materials" : [
        {
            "doubleSided" : true,
            "name" : "Material",
            "pbrMetallicRoughness" : {
                "baseColorFactor" : [
                    0.5332759022712708,
                    0.5332761406898499,
                    0.46207693219184875,
                    1
                ],
                "metallicFactor" : 0,
                "roughnessFactor" : 0.4000000059604645
            }
        },
        {
            "doubleSided" : true,
            "name" : "Material.005",
            "pbrMetallicRoughness" : {
                "baseColorFactor" : [
                    0.3864290714263916,
                    0.34191417694091797,
                    0.34191441535949707,
                    1
                ],
                "metallicFactor" : 0,
                "roughnessFactor" : 0.5
            }
        },
        {
            "doubleSided" : true,
            "name" : "Material.002",
            "pbrMetallicRoughness" : {
                "baseColorFactor" : [
                    1,
                    0.8787187337875366,
                    0.8394466042518616,
                    1
                ],
                "metallicFactor" : 0,
                "roughnessFactor" : 0.5
            }
        }
    ],
    "meshes" : [
        {
            "name" : "Cube",
            "primitives" : [
                {
                    "attributes" : {
                        "POSITION" : 0,
                        "NORMAL" : 1,
                        "TEXCOORD_0" : 2
                    },
                    "indices" : 3,
                    "material" : 0
                },
                {
                    "attributes" : {
                        "POSITION" : 4,
                        "NORMAL" : 5,
                        "TEXCOORD_0" : 6
                    },
                    "indices" : 7,
                    "material" : 1
                },
                {
                    "attributes" : {
                        "POSITION" : 8,
                        "NORMAL" : 9,
                        "TEXCOORD_0" : 10
                    },
                    "indices" : 11,
                    "material" : 2
                }
            ]
        }
    ],
    "accessors" : [
        {
            "bufferView" : 0,
            "componentType" : 5126,
            "count" : 614476,
            "max" : [
                1.7469823360443115,
                0.5400078296661377,
                1
            ],
            "min" : [
                -1,
                -0.35119950771331787,
                -2.988790512084961
            ],
            "type" : "VEC3"
        },
        {
            "bufferView" : 1,
            "componentType" : 5126,
            "count" : 614476,
            "type" : "VEC3"
        },
        {
            "bufferView" : 2,
            "componentType" : 5126,
            "count" : 614476,
            "type" : "VEC2"
        },
        {
            "bufferView" : 3,
            "componentType" : 5125,
            "count" : 921708,
            "type" : "SCALAR"
        },
        {
            "bufferView" : 4,
            "componentType" : 5126,
            "count" : 2659186,
            "max" : [
                1.6766587495803833,
                0.5954616665840149,
                0.8103516697883606
            ],
            "min" : [
                -1.0657544136047363,
                0.13197267055511475,
                -2.8020215034484863
            ],
            "type" : "VEC3"
        },
        {
            "bufferView" : 5,
            "componentType" : 5126,
            "count" : 2659186,
            "type" : "VEC3"
        },
        {
            "bufferView" : 6,
            "componentType" : 5126,
            "count" : 2659186,
            "type" : "VEC2"
        },
        {
            "bufferView" : 7,
            "componentType" : 5125,
            "count" : 3993600,
            "type" : "SCALAR"
        },
        {
            "bufferView" : 8,
            "componentType" : 5126,
            "count" : 1048576,
            "max" : [
                1.7525835037231445,
                1.8202204704284668,
                0.7474501132965088
            ],
            "min" : [
                0.5249218940734863,
                0.5591119527816772,
                -2.613931655883789
            ],
            "type" : "VEC3"
        },
        {
            "bufferView" : 9,
            "componentType" : 5126,
            "count" : 1048576,
            "type" : "VEC3"
        },
        {
            "bufferView" : 10,
            "componentType" : 5126,
            "count" : 1048576,
            "type" : "VEC2"
        },
        {
            "bufferView" : 11,
            "componentType" : 5125,
            "count" : 1572864,
            "type" : "SCALAR"
        }
    ],
    "bufferViews" : [
        {
            "buffer" : 0,
            "byteLength" : 7373712,
            "byteOffset" : 0
        },
        {
            "buffer" : 0,
            "byteLength" : 7373712,
            "byteOffset" : 7373712
        },
        {
            "buffer" : 0,
            "byteLength" : 4915808,
            "byteOffset" : 14747424
        },
        {
            "buffer" : 0,
            "byteLength" : 3686832,
            "byteOffset" : 19663232
        },
        {
            "buffer" : 0,
            "byteLength" : 31910232,
            "byteOffset" : 23350064
        },
        {
            "buffer" : 0,
            "byteLength" : 31910232,
            "byteOffset" : 55260296
        },
        {
            "buffer" : 0,
            "byteLength" : 21273488,
            "byteOffset" : 87170528
        },
        {
            "buffer" : 0,
            "byteLength" : 15974400,
            "byteOffset" : 108444016
        },
        {
            "buffer" : 0,
            "byteLength" : 12582912,
            "byteOffset" : 124418416
        },
        {
            "buffer" : 0,
            "byteLength" : 12582912,
            "byteOffset" : 137001328
        },
        {
            "buffer" : 0,
            "byteLength" : 8388608,
            "byteOffset" : 149584240
        },
        {
            "buffer" : 0,
            "byteLength" : 6291456,
            "byteOffset" : 157972848
        }
    ],
    "buffers" : [
        {
            "byteLength" : 164264304,
            "uri" : "SOFA4_G.bin"
        }
    ]
}
