{
    "asset" : {
        "generator" : "Khronos glTF Blender I/O v1.7.33",
        "version" : "2.0"
    },
    "scene" : 0,
    "scenes" : [
        {
            "name" : "Scene",
            "nodes" : [
                0
            ]
        }
    ],
    "nodes" : [
        {
            "mesh" : 0,
            "name" : "Cube.001",
            "scale" : [
                0.46504220366477966,
                1,
                0.40023815631866455
            ],
            "translation" : [
                -0.8942951560020447,
                2.129580497741699,
                -0.9450668692588806
            ]
        }
    ],
    "materials" : [
        {
            "doubleSided" : true,
            "name" : "Material.001",
            "pbrMetallicRoughness" : {
                "baseColorFactor" : [
                    0.800000011920929,
                    0.800000011920929,
                    0.800000011920929,
                    1
                ],
                "metallicFactor" : 0,
                "roughnessFactor" : 0.5
            }
        },
        {
            "doubleSided" : true,
            "name" : "Material",
            "pbrMetallicRoughness" : {
                "baseColorFactor" : [
                    0.5332759022712708,
                    0.5332761406898499,
                    0.46207693219184875,
                    1
                ],
                "metallicFactor" : 0,
                "roughnessFactor" : 0.4000000059604645
            }
        },
        {
            "doubleSided" : true,
            "name" : "Material.005",
            "pbrMetallicRoughness" : {
                "baseColorFactor" : [
                    0.3864290714263916,
                    0.34191417694091797,
                    0.34191441535949707,
                    1
                ],
                "metallicFactor" : 0,
                "roughnessFactor" : 0.5
            }
        }
    ],
    "meshes" : [
        {
            "name" : "Cube.002",
            "primitives" : [
                {
                    "attributes" : {
                        "POSITION" : 0,
                        "NORMAL" : 1,
                        "TEXCOORD_0" : 2
                    },
                    "indices" : 3,
                    "material" : 0
                },
                {
                    "attributes" : {
                        "POSITION" : 4,
                        "NORMAL" : 5,
                        "TEXCOORD_0" : 6
                    },
                    "indices" : 7,
                    "material" : 1
                },
                {
                    "attributes" : {
                        "POSITION" : 8,
                        "NORMAL" : 9,
                        "TEXCOORD_0" : 10
                    },
                    "indices" : 11,
                    "material" : 2
                }
            ]
        }
    ],
    "accessors" : [
        {
            "bufferView" : 0,
            "componentType" : 5126,
            "count" : 153600,
            "max" : [
                1.7355327606201172,
                -0.5697137117385864,
                2.0478971004486084
            ],
            "min" : [
                -0.9995404481887817,
                -0.9995404481887817,
                -1.9041937589645386
            ],
            "type" : "VEC3"
        },
        {
            "bufferView" : 1,
            "componentType" : 5126,
            "count" : 153600,
            "type" : "VEC3"
        },
        {
            "bufferView" : 2,
            "componentType" : 5126,
            "count" : 153600,
            "type" : "VEC2"
        },
        {
            "bufferView" : 3,
            "componentType" : 5125,
            "count" : 230400,
            "type" : "SCALAR"
        },
        {
            "bufferView" : 4,
            "componentType" : 5126,
            "count" : 72,
            "max" : [
                1.7469823360443115,
                -1.003285527229309,
                2.0689504146575928
            ],
            "min" : [
                -1,
                -1.460921049118042,
                -1.9198400974273682
            ],
            "type" : "VEC3"
        },
        {
            "bufferView" : 5,
            "componentType" : 5126,
            "count" : 72,
            "type" : "VEC3"
        },
        {
            "bufferView" : 6,
            "componentType" : 5126,
            "count" : 72,
            "type" : "VEC2"
        },
        {
            "bufferView" : 7,
            "componentType" : 5123,
            "count" : 108,
            "type" : "SCALAR"
        },
        {
            "bufferView" : 8,
            "componentType" : 5126,
            "count" : 10560314,
            "max" : [
                1.6766588687896729,
                -0.5142381191253662,
                1.8793022632598877
            ],
            "min" : [
                -1.0657544136047363,
                -0.9777488708496094,
                -1.7330710887908936
            ],
            "type" : "VEC3"
        },
        {
            "bufferView" : 9,
            "componentType" : 5126,
            "count" : 10560314,
            "type" : "VEC3"
        },
        {
            "bufferView" : 10,
            "componentType" : 5126,
            "count" : 10560314,
            "type" : "VEC2"
        },
        {
            "bufferView" : 11,
            "componentType" : 5125,
            "count" : 15974400,
            "type" : "SCALAR"
        }
    ],
    "bufferViews" : [
        {
            "buffer" : 0,
            "byteLength" : 1843200,
            "byteOffset" : 0
        },
        {
            "buffer" : 0,
            "byteLength" : 1843200,
            "byteOffset" : 1843200
        },
        {
            "buffer" : 0,
            "byteLength" : 1228800,
            "byteOffset" : 3686400
        },
        {
            "buffer" : 0,
            "byteLength" : 921600,
            "byteOffset" : 4915200
        },
        {
            "buffer" : 0,
            "byteLength" : 864,
            "byteOffset" : 5836800
        },
        {
            "buffer" : 0,
            "byteLength" : 864,
            "byteOffset" : 5837664
        },
        {
            "buffer" : 0,
            "byteLength" : 576,
            "byteOffset" : 5838528
        },
        {
            "buffer" : 0,
            "byteLength" : 216,
            "byteOffset" : 5839104
        },
        {
            "buffer" : 0,
            "byteLength" : 126723768,
            "byteOffset" : 5839320
        },
        {
            "buffer" : 0,
            "byteLength" : 126723768,
            "byteOffset" : 132563088
        },
        {
            "buffer" : 0,
            "byteLength" : 84482512,
            "byteOffset" : 259286856
        },
        {
            "buffer" : 0,
            "byteLength" : 63897600,
            "byteOffset" : 343769368
        }
    ],
    "buffers" : [
        {
            "byteLength" : 407666968,
            "uri" : "SOFA3_G.bin"
        }
    ]
}
