{
    "asset" : {
        "generator" : "Khronos glTF Blender I/O v1.7.33",
        "version" : "2.0"
    },
    "scene" : 0,
    "scenes" : [
        {
            "name" : "Scene",
            "nodes" : [
                0
            ]
        }
    ],
    "nodes" : [
        {
            "mesh" : 0,
            "name" : "Cube.003",
            "scale" : [
                0.46504220366477966,
                1,
                0.40023815631866455
            ],
            "translation" : [
                -0.8942951560020447,
                2.563143730163574,
                -0.5172321200370789
            ]
        }
    ],
    "materials" : [
        {
            "doubleSided" : true,
            "name" : "Material.005",
            "pbrMetallicRoughness" : {
                "baseColorFactor" : [
                    0.7454044818878174,
                    0.6938719153404236,
                    0.6514058113098145,
                    1
                ],
                "metallicFactor" : 0,
                "roughnessFactor" : 0.5
            }
        },
        {
            "doubleSided" : true,
            "name" : "Material",
            "pbrMetallicRoughness" : {
                "baseColorFactor" : [
                    0.029556840658187866,
                    0.10702312737703323,
                    0.026241229847073555,
                    1
                ],
                "metallicFactor" : 0,
                "roughnessFactor" : 0.4000000059604645
            }
        },
        {
            "doubleSided" : true,
            "name" : "Material.001",
            "pbrMetallicRoughness" : {
                "baseColorFactor" : [
                    0.800000011920929,
                    0.800000011920929,
                    0.800000011920929,
                    1
                ],
                "metallicFactor" : 0,
                "roughnessFactor" : 0.5
            }
        }
    ],
    "meshes" : [
        {
            "name" : "Cube.004",
            "primitives" : [
                {
                    "attributes" : {
                        "POSITION" : 0,
                        "NORMAL" : 1,
                        "TEXCOORD_0" : 2
                    },
                    "indices" : 3,
                    "material" : 0
                },
                {
                    "attributes" : {
                        "POSITION" : 4,
                        "NORMAL" : 5,
                        "TEXCOORD_0" : 6
                    },
                    "indices" : 7,
                    "material" : 1
                },
                {
                    "attributes" : {
                        "POSITION" : 8,
                        "NORMAL" : 9,
                        "TEXCOORD_0" : 10
                    },
                    "indices" : 11,
                    "material" : 2
                }
            ]
        }
    ],
    "accessors" : [
        {
            "bufferView" : 0,
            "componentType" : 5126,
            "count" : 10560550,
            "max" : [
                1.6766588687896729,
                -0.9478013515472412,
                0.8103517889976501
            ],
            "min" : [
                -1.0657544136047363,
                -1.4113121032714844,
                -2.8020215034484863
            ],
            "type" : "VEC3"
        },
        {
            "bufferView" : 1,
            "componentType" : 5126,
            "count" : 10560550,
            "type" : "VEC3"
        },
        {
            "bufferView" : 2,
            "componentType" : 5126,
            "count" : 10560550,
            "type" : "VEC2"
        },
        {
            "bufferView" : 3,
            "componentType" : 5125,
            "count" : 15974400,
            "type" : "SCALAR"
        },
        {
            "bufferView" : 4,
            "componentType" : 5126,
            "count" : 72,
            "max" : [
                1.7469823360443115,
                -1.436848759651184,
                0.9999998807907104
            ],
            "min" : [
                -1,
                -1.894484281539917,
                -2.988790512084961
            ],
            "type" : "VEC3"
        },
        {
            "bufferView" : 5,
            "componentType" : 5126,
            "count" : 72,
            "type" : "VEC3"
        },
        {
            "bufferView" : 6,
            "componentType" : 5126,
            "count" : 72,
            "type" : "VEC2"
        },
        {
            "bufferView" : 7,
            "componentType" : 5123,
            "count" : 108,
            "type" : "SCALAR"
        },
        {
            "bufferView" : 8,
            "componentType" : 5126,
            "count" : 153600,
            "max" : [
                1.7355327606201172,
                -1.0032769441604614,
                0.9789465665817261
            ],
            "min" : [
                -0.9995404481887817,
                -1.4331036806106567,
                -2.973144292831421
            ],
            "type" : "VEC3"
        },
        {
            "bufferView" : 9,
            "componentType" : 5126,
            "count" : 153600,
            "type" : "VEC3"
        },
        {
            "bufferView" : 10,
            "componentType" : 5126,
            "count" : 153600,
            "type" : "VEC2"
        },
        {
            "bufferView" : 11,
            "componentType" : 5125,
            "count" : 230400,
            "type" : "SCALAR"
        }
    ],
    "bufferViews" : [
        {
            "buffer" : 0,
            "byteLength" : 126726600,
            "byteOffset" : 0
        },
        {
            "buffer" : 0,
            "byteLength" : 126726600,
            "byteOffset" : 126726600
        },
        {
            "buffer" : 0,
            "byteLength" : 84484400,
            "byteOffset" : 253453200
        },
        {
            "buffer" : 0,
            "byteLength" : 63897600,
            "byteOffset" : 337937600
        },
        {
            "buffer" : 0,
            "byteLength" : 864,
            "byteOffset" : 401835200
        },
        {
            "buffer" : 0,
            "byteLength" : 864,
            "byteOffset" : 401836064
        },
        {
            "buffer" : 0,
            "byteLength" : 576,
            "byteOffset" : 401836928
        },
        {
            "buffer" : 0,
            "byteLength" : 216,
            "byteOffset" : 401837504
        },
        {
            "buffer" : 0,
            "byteLength" : 1843200,
            "byteOffset" : 401837720
        },
        {
            "buffer" : 0,
            "byteLength" : 1843200,
            "byteOffset" : 403680920
        },
        {
            "buffer" : 0,
            "byteLength" : 1228800,
            "byteOffset" : 405524120
        },
        {
            "buffer" : 0,
            "byteLength" : 921600,
            "byteOffset" : 406752920
        }
    ],
    "buffers" : [
        {
            "byteLength" : 407674520,
            "uri" : "SOFA3_V.bin"
        }
    ]
}
