{
    "asset" : {
        "generator" : "Khronos glTF Blender I/O v1.7.33",
        "version" : "2.0"
    },
    "scene" : 0,
    "scenes" : [
        {
            "name" : "Scene",
            "nodes" : [
                0
            ]
        }
    ],
    "nodes" : [
        {
            "mesh" : 0,
            "name" : "Cube",
            "scale" : [
                0.46504220366477966,
                1,
                0.40023815631866455
            ],
            "translation" : [
                -0.8942951560020447,
                1.019858956336975,
                -0.5172321200370789
            ]
        }
    ],
    "materials" : [
        {
            "doubleSided" : true,
            "name" : "Material",
            "pbrMetallicRoughness" : {
                "baseColorFactor" : [
                    0.43965715169906616,
                    0.24228110909461975,
                    0.11697071045637131,
                    1
                ],
                "metallicFactor" : 0,
                "roughnessFactor" : 0.4000000059604645
            }
        },
        {
            "doubleSided" : true,
            "name" : "Material.001",
            "pbrMetallicRoughness" : {
                "baseColorFactor" : [
                    0.800000011920929,
                    0.800000011920929,
                    0.800000011920929,
                    1
                ],
                "metallicFactor" : 0,
                "roughnessFactor" : 0.5
            }
        },
        {
            "doubleSided" : true,
            "name" : "Material.005",
            "pbrMetallicRoughness" : {
                "baseColorFactor" : [
                    0.9301114082336426,
                    0.7605245113372803,
                    0.5271152257919312,
                    1
                ],
                "metallicFactor" : 0,
                "roughnessFactor" : 0.5
            }
        }
    ],
    "meshes" : [
        {
            "name" : "Cube",
            "primitives" : [
                {
                    "attributes" : {
                        "POSITION" : 0,
                        "NORMAL" : 1,
                        "TEXCOORD_0" : 2
                    },
                    "indices" : 3,
                    "material" : 0
                },
                {
                    "attributes" : {
                        "POSITION" : 4,
                        "NORMAL" : 5,
                        "TEXCOORD_0" : 6
                    },
                    "indices" : 7,
                    "material" : 1
                },
                {
                    "attributes" : {
                        "POSITION" : 8,
                        "NORMAL" : 9,
                        "TEXCOORD_0" : 10
                    },
                    "indices" : 11,
                    "material" : 2
                }
            ]
        }
    ],
    "accessors" : [
        {
            "bufferView" : 0,
            "componentType" : 5126,
            "count" : 76,
            "max" : [
                1.7469823360443115,
                0.10643601417541504,
                1
            ],
            "min" : [
                -1,
                -0.35119950771331787,
                -2.988790512084961
            ],
            "type" : "VEC3"
        },
        {
            "bufferView" : 1,
            "componentType" : 5126,
            "count" : 76,
            "type" : "VEC3"
        },
        {
            "bufferView" : 2,
            "componentType" : 5126,
            "count" : 76,
            "type" : "VEC2"
        },
        {
            "bufferView" : 3,
            "componentType" : 5123,
            "count" : 108,
            "type" : "SCALAR"
        },
        {
            "bufferView" : 4,
            "componentType" : 5126,
            "count" : 153600,
            "max" : [
                1.7355327606201172,
                0.5400078296661377,
                0.9789465665817261
            ],
            "min" : [
                -0.9995404481887817,
                0.11018109321594238,
                -2.973144292831421
            ],
            "type" : "VEC3"
        },
        {
            "bufferView" : 5,
            "componentType" : 5126,
            "count" : 153600,
            "type" : "VEC3"
        },
        {
            "bufferView" : 6,
            "componentType" : 5126,
            "count" : 153600,
            "type" : "VEC2"
        },
        {
            "bufferView" : 7,
            "componentType" : 5125,
            "count" : 230400,
            "type" : "SCALAR"
        },
        {
            "bufferView" : 8,
            "componentType" : 5126,
            "count" : 10634557,
            "max" : [
                1.6766588687896729,
                0.5954834222793579,
                0.8103516697883606
            ],
            "min" : [
                -1.0657544136047363,
                0.13197267055511475,
                -2.8020215034484863
            ],
            "type" : "VEC3"
        },
        {
            "bufferView" : 9,
            "componentType" : 5126,
            "count" : 10634557,
            "type" : "VEC3"
        },
        {
            "bufferView" : 10,
            "componentType" : 5126,
            "count" : 10634557,
            "type" : "VEC2"
        },
        {
            "bufferView" : 11,
            "componentType" : 5125,
            "count" : 15974400,
            "type" : "SCALAR"
        }
    ],
    "bufferViews" : [
        {
            "buffer" : 0,
            "byteLength" : 912,
            "byteOffset" : 0
        },
        {
            "buffer" : 0,
            "byteLength" : 912,
            "byteOffset" : 912
        },
        {
            "buffer" : 0,
            "byteLength" : 608,
            "byteOffset" : 1824
        },
        {
            "buffer" : 0,
            "byteLength" : 216,
            "byteOffset" : 2432
        },
        {
            "buffer" : 0,
            "byteLength" : 1843200,
            "byteOffset" : 2648
        },
        {
            "buffer" : 0,
            "byteLength" : 1843200,
            "byteOffset" : 1845848
        },
        {
            "buffer" : 0,
            "byteLength" : 1228800,
            "byteOffset" : 3689048
        },
        {
            "buffer" : 0,
            "byteLength" : 921600,
            "byteOffset" : 4917848
        },
        {
            "buffer" : 0,
            "byteLength" : 127614684,
            "byteOffset" : 5839448
        },
        {
            "buffer" : 0,
            "byteLength" : 127614684,
            "byteOffset" : 133454132
        },
        {
            "buffer" : 0,
            "byteLength" : 85076456,
            "byteOffset" : 261068816
        },
        {
            "buffer" : 0,
            "byteLength" : 63897600,
            "byteOffset" : 346145272
        }
    ],
    "buffers" : [
        {
            "byteLength" : 410042872,
            "uri" : "SOFA3_M.bin"
        }
    ]
}
