{
    "asset" : {
        "generator" : "Khronos glTF Blender I/O v1.7.33",
        "version" : "2.0"
    },
    "scene" : 0,
    "scenes" : [
        {
            "name" : "Scene",
            "nodes" : [
                0
            ]
        }
    ],
    "nodes" : [
        {
            "mesh" : 0,
            "name" : "Cube.003",
            "scale" : [
                0.46504223346710205,
                1,
                1
            ],
            "translation" : [
                0.653691828250885,
                2.563143730163574,
                0
            ]
        }
    ],
    "materials" : [
        {
            "doubleSided" : true,
            "name" : "Material.005",
            "pbrMetallicRoughness" : {
                "baseColorFactor" : [
                    0.7454044818878174,
                    0.6938719153404236,
                    0.6514058113098145,
                    1
                ],
                "metallicFactor" : 0,
                "roughnessFactor" : 0.5
            }
        },
        {
            "doubleSided" : true,
            "name" : "Material",
            "pbrMetallicRoughness" : {
                "baseColorFactor" : [
                    0.029556840658187866,
                    0.10702312737703323,
                    0.026241229847073555,
                    1
                ],
                "metallicFactor" : 0,
                "roughnessFactor" : 0.4000000059604645
            }
        },
        {
            "doubleSided" : true,
            "name" : "Material.002",
            "pbrMetallicRoughness" : {
                "baseColorFactor" : [
                    1,
                    0.8787187337875366,
                    0.8394466042518616,
                    1
                ],
                "metallicFactor" : 0,
                "roughnessFactor" : 0.5
            }
        }
    ],
    "meshes" : [
        {
            "name" : "Cube.004",
            "primitives" : [
                {
                    "attributes" : {
                        "POSITION" : 0,
                        "NORMAL" : 1,
                        "TEXCOORD_0" : 2
                    },
                    "indices" : 3,
                    "material" : 0
                },
                {
                    "attributes" : {
                        "POSITION" : 4,
                        "NORMAL" : 5,
                        "TEXCOORD_0" : 6
                    },
                    "indices" : 7,
                    "material" : 1
                },
                {
                    "attributes" : {
                        "POSITION" : 8,
                        "NORMAL" : 9,
                        "TEXCOORD_0" : 10
                    },
                    "indices" : 11,
                    "material" : 2
                }
            ]
        }
    ],
    "accessors" : [
        {
            "bufferView" : 0,
            "componentType" : 5126,
            "count" : 1279362,
            "max" : [
                1.7817518711090088,
                -0.05655515193939209,
                0.9789462089538574
            ],
            "min" : [
                -1.0657544136047363,
                -1.4331037998199463,
                -2.973144292831421
            ],
            "type" : "VEC3"
        },
        {
            "bufferView" : 1,
            "componentType" : 5126,
            "count" : 1279362,
            "type" : "VEC3"
        },
        {
            "bufferView" : 2,
            "componentType" : 5126,
            "count" : 1279362,
            "type" : "VEC2"
        },
        {
            "bufferView" : 3,
            "componentType" : 5125,
            "count" : 1926336,
            "type" : "SCALAR"
        },
        {
            "bufferView" : 4,
            "componentType" : 5126,
            "count" : 72,
            "max" : [
                1.746982216835022,
                -1.4368488788604736,
                0.9999999403953552
            ],
            "min" : [
                -0.9999999403953552,
                -1.8944844007492065,
                -2.988790273666382
            ],
            "type" : "VEC3"
        },
        {
            "bufferView" : 5,
            "componentType" : 5126,
            "count" : 72,
            "type" : "VEC3"
        },
        {
            "bufferView" : 6,
            "componentType" : 5126,
            "count" : 72,
            "type" : "VEC2"
        },
        {
            "bufferView" : 7,
            "componentType" : 5123,
            "count" : 108,
            "type" : "SCALAR"
        },
        {
            "bufferView" : 8,
            "componentType" : 5126,
            "count" : 2114176,
            "max" : [
                1.7529590129852295,
                0.0033865347504615784,
                0.695218026638031
            ],
            "min" : [
                0.03971940279006958,
                -0.9646240472793579,
                -2.542156934738159
            ],
            "type" : "VEC3"
        },
        {
            "bufferView" : 9,
            "componentType" : 5126,
            "count" : 2114176,
            "type" : "VEC3"
        },
        {
            "bufferView" : 10,
            "componentType" : 5126,
            "count" : 2114176,
            "type" : "VEC2"
        },
        {
            "bufferView" : 11,
            "componentType" : 5125,
            "count" : 3171264,
            "type" : "SCALAR"
        }
    ],
    "bufferViews" : [
        {
            "buffer" : 0,
            "byteLength" : 15352344,
            "byteOffset" : 0
        },
        {
            "buffer" : 0,
            "byteLength" : 15352344,
            "byteOffset" : 15352344
        },
        {
            "buffer" : 0,
            "byteLength" : 10234896,
            "byteOffset" : 30704688
        },
        {
            "buffer" : 0,
            "byteLength" : 7705344,
            "byteOffset" : 40939584
        },
        {
            "buffer" : 0,
            "byteLength" : 864,
            "byteOffset" : 48644928
        },
        {
            "buffer" : 0,
            "byteLength" : 864,
            "byteOffset" : 48645792
        },
        {
            "buffer" : 0,
            "byteLength" : 576,
            "byteOffset" : 48646656
        },
        {
            "buffer" : 0,
            "byteLength" : 216,
            "byteOffset" : 48647232
        },
        {
            "buffer" : 0,
            "byteLength" : 25370112,
            "byteOffset" : 48647448
        },
        {
            "buffer" : 0,
            "byteLength" : 25370112,
            "byteOffset" : 74017560
        },
        {
            "buffer" : 0,
            "byteLength" : 16913408,
            "byteOffset" : 99387672
        },
        {
            "buffer" : 0,
            "byteLength" : 12685056,
            "byteOffset" : 116301080
        }
    ],
    "buffers" : [
        {
            "byteLength" : 128986136,
            "uri" : "SOFA1_V.bin"
        }
    ]
}
